<?xml version="1.0" standalone="no"?>
<!DOCTYPE svg PUBLIC "-//W3C//DTD SVG 1.1//EN" "http://www.w3.org/Graphics/SVG/1.1/DTD/svg11.dtd" >
<svg xmlns="http://www.w3.org/2000/svg">
<metadata>Generated by IcoMoon</metadata>
<defs>
<font id="icomoon" horiz-adv-x="1024">
<font-face units-per-em="1024" ascent="960" descent="-64" />
<missing-glyph horiz-adv-x="1024" />
<glyph unicode="&#x20;" horiz-adv-x="512" d="" />
<glyph unicode="&#xe900;" glyph-name="camera-video-fill" d="M144.593 704h491.665c32.708-0.038 59.221-26.543 59.26-59.259v-389.969c-0.038-32.717-26.551-59.221-59.26-59.26h-491.665c-32.716 0.038-59.221 26.543-59.259 59.26v389.969c0.038 32.716 26.543 59.221 59.259 59.259zM938.654 257.408l-203.639 111.181v161.054l203.639 111.183v-383.417z" />
<glyph unicode="&#xe901;" glyph-name="camera-video-line" d="M929.809 656.041c-5.491 3.255-12.288 3.383-17.894 0.325l-195.789-106.906v64.145c-0.060 49.901-40.495 90.339-90.398 90.395h-449.999c-49.901-0.056-90.339-40.495-90.395-90.395v-356.922c0.056-49.899 40.495-90.338 90.395-90.394h449.999c49.903 0.055 90.338 40.495 90.398 90.394v62.98l195.797-106.906c5.598-3.059 12.399-2.94 17.886 0.316 5.495 3.264 8.858 9.178 8.858 15.552v411.872c0 6.384-3.371 12.288-8.858 15.544v0zM679.953 256.678c-0.030-29.943-24.294-54.204-54.238-54.238h-449.987c-29.943 0.034-54.202 24.294-54.237 54.238v356.926c0.035 29.936 24.294 54.202 54.237 54.237h449.999c29.939-0.035 54.204-24.301 54.238-54.237l-0.013-356.926zM902.507 259.093l-186.381 101.764v147.409l186.381 101.757v-350.931z" />
<glyph unicode="&#xe902;" glyph-name="podcast-circle-fill" d="M128 448c0 211.734 172.249 384 384 384s384-172.266 384-384c0-211.733-172.25-384-384-384s-384 172.267-384 384zM512 297.741c-49.553 0-90.691 36.177-98.671 83.477h-67.417c8.398-84.245 79.689-150.263 166.106-150.263s157.692 66.018 166.106 150.263h-67.452c-7.996-47.3-49.118-83.477-98.671-83.477zM528.695 198.417v-100.173c185.54 8.798 333.914 162.065 333.914 349.756 0 193.335-157.291 350.609-350.609 350.609s-350.609-157.273-350.609-350.609c0-187.691 148.374-340.958 333.913-349.756v100.173c-102.679 8.529-183.652 94.665-183.652 199.497v83.477c0 9.216 7.463 16.695 16.695 16.695s16.696-7.479 16.696-16.695v-66.782h66.782v183.652c0 55.246 44.929 100.174 100.174 100.174s100.173-44.928 100.173-100.174v-183.652h66.782v66.782c0 9.216 7.467 16.695 16.695 16.695 9.233 0 16.7-7.479 16.7-16.695v-83.477c0-104.832-80.977-190.967-183.654-199.497z" />
<glyph unicode="&#xe903;" glyph-name="podcast-circle-line" d="M512 832c-211.751 0-384-172.266-384-384s172.249-384 384-384c211.75 0 384 172.267 384 384s-172.25 384-384 384zM345.929 381.218h67.4c7.98-47.3 49.118-83.477 98.671-83.477s90.692 36.177 98.671 83.477h67.452c-8.397-84.245-79.689-150.263-166.106-150.263s-157.691 66.018-166.089 150.263zM445.218 397.914v200.347c0 36.831 29.952 66.783 66.782 66.783s66.782-29.952 66.782-66.783v-200.347c0-36.83-29.952-66.782-66.782-66.782s-66.782 29.952-66.782 66.782zM528.695 98.244v100.173c102.677 8.529 183.654 94.647 183.654 199.497v83.477c0 9.216-7.467 16.695-16.7 16.695-9.229 0-16.695-7.479-16.695-16.695v-66.782h-66.782v183.652c0 55.246-44.928 100.174-100.173 100.174s-100.174-44.928-100.174-100.174v-183.652h-66.766v66.782c0 9.216-7.463 16.695-16.696 16.695s-16.695-7.479-16.695-16.695v-83.396c0-0.030-0.017-0.047-0.017-0.081s0.017-0.068 0.017-0.102c0.050-104.798 81.007-190.878 183.636-199.394v-100.173c-185.539 8.798-333.913 162.065-333.913 349.756 0 193.335 157.29 350.609 350.609 350.609s350.609-157.273 350.609-350.609c0-187.691-148.373-340.958-333.914-349.756z" />
<glyph unicode="&#xe904;" glyph-name="video-play-fill" d="M783.526 719.53c-72.525 72.528-168.956 112.47-271.526 112.47s-199.002-39.944-271.53-112.47c-72.527-72.528-112.47-168.96-112.47-271.53s39.944-199.002 112.47-271.531c72.528-72.525 168.958-112.469 271.53-112.469s199.002 39.945 271.526 112.469c72.529 72.529 112.474 168.96 112.474 271.531s-39.945 199-112.474 271.53zM729.331 429.278l-289.203-192.798c-3.763-2.513-8.115-3.78-12.48-3.78-3.641 0-7.289 0.883-10.616 2.662-7.316 3.913-11.883 11.537-11.883 19.836v385.602c0 8.298 4.567 15.922 11.883 19.837 7.314 3.915 16.192 3.488 23.096-1.117l289.203-192.802c6.259-4.173 10.018-11.196 10.018-18.718 0-7.526-3.759-14.549-10.018-18.722z" />
<glyph unicode="&#xe905;" glyph-name="video-play-line" d="M512 832c102.571 0 199.002-39.942 271.526-112.47 72.529-72.529 112.474-168.96 112.474-271.53s-39.945-199.002-112.474-271.531c-72.525-72.529-168.956-112.469-271.526-112.469s-199.003 39.945-271.53 112.469c-72.528 72.529-112.47 168.96-112.47 271.531s39.942 199.002 112.47 271.53c72.527 72.527 168.958 112.47 271.53 112.47zM173 448c0-186.927 152.074-338.999 339-338.999 186.927 0 338.999 152.073 338.999 338.999s-152.073 339-338.999 339c-186.926 0-339-152.074-339-339zM440.128 659.523l289.199-192.8c6.259-4.177 10.018-11.2 10.022-18.722 0-7.522-3.763-14.549-10.022-18.722l-289.199-192.798c-3.763-2.509-8.115-3.776-12.48-3.776-3.642 0-7.29 0.879-10.617 2.662-7.315 3.913-11.883 11.537-11.883 19.836v385.599c0 8.298 4.567 15.923 11.883 19.838 7.317 3.916 16.193 3.486 23.097-1.116zM450.146 598.758v-301.516l226.138 150.758-226.138 150.758z" />
<glyph unicode="&#xe906;" glyph-name="user-woman-line" d="M562.998 327.116l3.946-0.559c5.241-1.272 9.672-4.508 12.478-9.115 8.155-13.388 22.393-21.38 38.091-21.38 36.518 0.002 70.836-14.202 96.627-39.993 25.789-25.791 39.993-60.105 39.993-96.624v0-73.793c0-11.124-9.049-20.172-20.171-20.172-11.124 0-20.172 9.049-20.172 20.172v0 73.793c0 53.084-43.189 96.272-96.276 96.272-29.891 0-57.010 15.229-72.545 40.739-2.805 4.599-3.646 10.018-2.375 15.254s4.507 9.663 9.108 12.466c4.588 2.8 10.004 3.651 15.242 2.379zM503.533 812.664c25.992 18.056 58.691 22.631 89.712 12.554 31.020-10.079 54.786-33.001 65.203-62.887 2.444-7.016 8.821-11.651 16.249-11.809 31.643-0.67 60.784-16.186 79.956-42.573s24.926-58.903 15.785-89.205c-2.146-7.112 0.289-14.609 6.207-19.102 25.206-19.143 39.661-48.828 39.661-81.443 0-32.617-14.457-62.302-39.661-81.443-5.918-4.494-8.354-11.993-6.209-19.103 13.001-43.099-5.033-90.71-43.854-115.781-9.348-6.033-21.859-3.339-27.891 6.004-6.033 9.342-3.339 21.854 6.003 27.891 23.803 15.369 34.953 44.251 27.117 70.232-6.955 23.054 1.256 48.326 20.433 62.888 15.070 11.446 23.713 29.428 23.713 49.335-0.002 19.882-8.645 37.849-23.716 49.292-19.174 14.561-27.385 39.833-20.43 62.885 5.464 18.111 1.885 37.736-9.818 53.844-11.687 16.090-29.241 25.547-48.157 25.948-24.068 0.508-45.564 16.128-53.491 38.864-6.228 17.871-20.659 31.648-39.593 37.799-18.908 6.142-38.666 3.476-54.207-7.321-19.773-13.736-46.347-13.738-66.122 0-15.538 10.793-35.311 13.457-54.244 7.307-18.911-6.146-33.33-19.917-39.558-37.786-7.923-22.736-29.419-38.355-53.491-38.864-18.919-0.401-36.48-9.867-48.181-25.972-11.687-16.087-15.256-35.703-9.79-53.82 6.952-23.052-1.26-48.324-20.432-62.885-15.068-11.443-23.711-29.414-23.711-49.307-0.002-19.9 8.642-37.878 23.711-49.322 19.172-14.558 27.385-39.83 20.433-62.884-5.465-18.116-1.892-37.735 9.801-53.831 11.695-16.097 29.253-25.561 48.17-25.961 20.88-0.442 39.83-12.165 49.69-30.319 4.001 0.204 6.586 0.175 6.734 0.175 23.962 0 43.622 19.126 44.397 42.927-27.444 14.076-50.705 35.15-67.483 61.191-18.152 28.173-27.746 60.815-27.746 94.398 0 11.122 9.049 20.172 20.172 20.172s20.172-9.050 20.172-20.172c0-74.12 60.3-134.42 134.418-134.42 74.12 0 134.42 60.3 134.42 134.42v0 63.848c0 50.875-41.386 92.263-92.257 92.263v0h-38.202c-15.315-37.74-40.828-70.244-74.037-94.244-33.652-24.319-74.428-39.448-117.923-43.748-11.061-1.091-20.966 7.026-22.058 18.091-0.531 5.361 1.058 10.608 4.474 14.773 3.418 4.167 8.251 6.754 13.614 7.284 41.549 4.109 79.216 19.532 108.929 44.601 30.745 25.942 51.365 61.125 59.632 101.748 1.075 5.284 4.146 9.833 8.645 12.807 4.494 2.971 9.878 4.012 15.154 2.934 10.89-2.216 17.953-12.889 15.735-23.786v0l-0.022-0.115h26.061c73.115 0 132.601-59.488 132.601-132.607v0l-0.006-65.28c0-0.056-0.001-0.070-0.001-0.083l-0.376-10.276c-3.349-51.089-28.639-97.546-70.419-128.547-42.019-31.182-94.266-41.779-144.617-29.648-3.118-16.656-11.091-31.769-23.117-43.821v0l63.772-49.373 39.848 30.851c8.791 6.809 21.487 5.195 28.299-3.599 6.809-8.797 5.192-21.493-3.6-28.302v0l-44.375-34.354v-110.343c0-11.124-9.049-20.172-20.172-20.172-11.122 0-20.171 9.049-20.171 20.172v0 110.343l-81.122 62.804c-7.394-2.046-15.021-3.081-22.731-3.081-53.087 0-96.278-43.188-96.278-96.272v0-73.793c0-11.124-9.050-20.174-20.172-20.174-11.124 0-20.172 9.050-20.172 20.174v0 73.793c0 30.181 9.622 58.772 27.825 82.683 14.44 18.967 33.84 33.966 55.625 43.209-1.292 0.323-2.636 0.505-4.012 0.533-31.64 0.671-60.784 16.188-79.955 42.575-19.174 26.39-24.928 58.904-15.787 89.205 2.146 7.112-0.292 14.609-6.207 19.1-25.206 19.143-39.663 48.826-39.663 81.442 0 32.618 14.457 62.303 39.663 81.446 5.915 4.493 8.351 11.992 6.207 19.103-9.141 30.307-3.387 62.821 15.785 89.209 19.172 26.385 48.316 41.904 79.958 42.572 7.427 0.16 13.806 4.794 16.251 11.807 10.414 29.887 34.178 52.808 65.197 62.887 31.023 10.079 63.722 5.505 89.716-12.552 6.101-4.238 13.985-4.238 20.089 0z" />
<glyph unicode="&#xe907;" glyph-name="channels-line" d="M811.912 127.364c-32.024 0-57.984 25.957-57.984 57.981 0 32.018 25.96 57.978 57.984 57.978 32.021 0 57.981-25.96 57.981-57.978 0-32.024-25.96-57.981-57.981-57.981zM510.576 276.66c-44.967 0-81.42 36.453-81.42 81.42s36.453 81.417 81.42 81.417c44.967 0 81.417-36.45 81.417-81.417s-36.45-81.42-81.417-81.42zM451.851 711.107c0 32.021 25.957 57.981 57.981 57.981 32.021 0 57.978-25.96 57.978-57.981s-25.957-57.981-57.978-57.981c-32.024 0-57.981 25.96-57.981 57.981zM206.225 127.364c-32.021 0-57.981 25.957-57.981 57.981 0 32.018 25.96 57.978 57.981 57.978s57.981-25.96 57.981-57.978c0-32.024-25.96-57.981-57.981-57.981zM811.912 306.237c-32.935 0-62.78-13.19-84.581-34.551l-55.868 32.253c5.724 17.009 8.874 35.203 8.874 54.141 0 82.694-59.142 151.546-137.43 166.647v70.108c50.679 14.39 87.817 60.979 87.817 116.272 0 66.765-54.126 120.892-120.892 120.892-66.768 0-120.892-54.126-120.892-120.892 0-55.722 37.712-102.611 88.999-116.608v-69.825c-78.137-15.223-137.124-84.007-137.124-166.593 0-19.007 3.173-37.263 8.933-54.326l-57.683-33.304c-21.903 22.093-52.269 35.786-85.84 35.786-66.765 0-120.892-54.126-120.892-120.892 0-66.768 54.126-120.895 120.892-120.895s120.892 54.126 120.892 120.895c0 9.776-1.191 19.265-3.382 28.368l58.237 33.625c31.131-36.12 77.181-59.017 128.604-59.017 51.495 0 97.601 22.957 128.732 59.166l55.492-32.039c-2.468-9.627-3.78-19.712-3.78-30.104 0-66.768 54.123-120.895 120.892-120.895 66.765 0 120.889 54.126 120.889 120.895 0 66.765-54.123 120.892-120.889 120.892z" />
<glyph unicode="&#xe908;" glyph-name="close-line" d="M549.308 426.661l249.206 249.216c16.218 16.21 16.218 42.422 0 58.632-16.21 16.21-42.418 16.21-58.628 0l-249.218-249.216-249.208 249.216c-16.216 16.21-42.42 16.21-58.63 0-16.218-16.21-16.218-42.422 0-58.632l249.208-249.216-249.208-249.214c-16.218-16.21-16.218-42.422 0-58.632 8.079-8.087 18.7-12.149 29.316-12.149 10.614 0 21.229 4.062 29.314 12.149l249.208 249.214 249.218-249.214c8.085-8.087 18.7-12.149 29.314-12.149 10.616 0 21.229 4.062 29.314 12.149 16.218 16.21 16.218 42.422 0 58.632l-249.206 249.214z" />
<glyph unicode="&#xe909;" glyph-name="laptop-fill" d="M397.586 244.364c7.497 0 13.576-6.079 13.576-13.576v0-27.152h149.334v27.152c0 7.497 6.079 13.576 13.576 13.576v0h312.243c4.504 0 8.714-2.232 11.241-5.961 2.556-3.718 3.095-8.466 1.439-12.666v0l-4.643-11.594c-16.074-39.965-48.871-64.809-85.527-64.809v0h-632.414c-36.763 0-69.454 24.844-85.459 64.809v0l-4.643 11.594c-0.645 1.61-0.974 3.326-0.974 5.062 0 7.497 6.089 13.571 13.586 13.566v0zM845.587 746.667c7.497 0 13.576-6.079 13.576-13.576v0-461.576c0-7.497-6.079-13.576-13.576-13.576v0h-705.94c-7.497 0-13.576 6.079-13.576 13.576v0 461.576c0 7.497 6.079 13.576 13.576 13.576v0z" />
<glyph unicode="&#xe90a;" glyph-name="laptop-line" d="M397.586 244.364c7.497 0 13.576-6.079 13.576-13.576v0-27.152h149.334v27.152c0 7.497 6.079 13.576 13.576 13.576v0h312.243c4.504 0 8.714-2.232 11.241-5.961 2.556-3.718 3.095-8.466 1.439-12.666v0l-4.643-11.594c-16.074-39.965-48.871-64.809-85.527-64.809v0h-632.414c-36.763 0-69.454 24.844-85.459 64.809v0l-4.643 11.594c-0.645 1.61-0.974 3.326-0.974 5.062 0 7.497 6.089 13.571 13.586 13.566v0zM865.95 217.212h-278.303v-27.152c0-7.497-6.079-13.576-13.576-13.576v0h234.752c25.293 1.451 47.508 17.289 57.127 40.727v0zM384.011 217.212h-264.728c9.613-23.442 31.832-39.281 57.127-40.727v0h221.176c-7.497 0-13.576 6.079-13.576 13.576v0 27.152zM845.587 746.667c7.497 0 13.576-6.079 13.576-13.576v0-461.576c0-7.497-6.079-13.576-13.576-13.576v0h-705.94c-7.497 0-13.576 6.079-13.576 13.576v0 461.576c0 7.497 6.079 13.576 13.576 13.576v0zM832.011 719.515h-678.789v-434.425h678.789v434.425z" />
<glyph unicode="&#xe90b;" glyph-name="computer-fill" d="M852.243 831.456h-697.19c-38.434 0-69.72-31.269-69.72-69.72v-488.035c0-38.451 31.285-69.72 69.72-69.72h244.095c-0.732-27.808-6.043-72.29-25.985-93.294-7.319-7.693-15.693-11.285-26.383-11.285-9.634 0-17.43-7.796-17.43-17.43s7.796-17.43 17.43-17.43h313.736c9.634 0 17.43 7.796 17.43 17.43s-7.796 17.43-17.43 17.43c-10.69 0-19.064 3.575-26.349 11.268-19.893 20.899-25.238 65.445-25.998 93.31h244.075c38.434 0 69.72 31.267 69.72 69.72v488.035c0 38.451-31.287 69.72-69.721 69.72zM503.648 238.741c-19.269 0-34.962 15.693-34.962 34.962s15.693 34.962 34.962 34.962c19.269 0 34.962-15.693 34.962-34.962s-15.693-34.962-34.962-34.962zM155.053 343.421v418.315h697.192l0.029-418.315h-697.221z" />
<glyph unicode="&#xe90c;" glyph-name="admin-polichat-fill" d="M852.243 831.456c38.434 0 69.721-31.269 69.721-69.72v0-488.035c0-38.452-31.285-69.72-69.72-69.72v0h-244.075c0.76-27.865 6.105-72.411 25.998-93.31 7.285-7.693 15.659-11.268 26.349-11.268 9.634 0 17.43-7.796 17.43-17.43s-7.796-17.43-17.43-17.43v0h-313.736c-9.634 0-17.43 7.796-17.43 17.43s7.796 17.43 17.43 17.43c10.69 0 19.064 3.592 26.383 11.285 19.942 21.004 25.252 65.486 25.985 93.294v0h-244.095c-38.434 0-69.72 31.269-69.72 69.72v0 488.035c0 38.451 31.285 69.72 69.72 69.72v0zM503.648 308.665c-19.269 0-34.962-15.693-34.962-34.962s15.693-34.962 34.962-34.962c19.269 0 34.962 15.693 34.962 34.962s-15.693 34.962-34.962 34.962zM852.245 761.736h-697.192v-418.315h697.221l-0.029 418.315zM494.641 704c84.574 0 153.326-68.658 153.326-153.099 0-67.939-44.567-125.602-106.015-145.567 9.065 10.882 14.723 24.678 14.723 39.95v32.437h-35.919v-31.793c0-14.534-11.771-26.286-26.324-26.286-14.572 0-26.343 11.752-26.343 26.286v31.793h-37.225v-32.437c0-14.837 5.356-28.273 13.966-39.022-60.142 20.703-103.498 77.628-103.498 144.64 0 84.441 68.753 153.099 153.307 153.099zM461.144 507.88h-23.334l-2.183-0.357c-2.064-0.694-3.711-2.341-4.405-4.405l-0.357-2.183v-18.262h37.225v18.262l-0.357 2.183c-0.926 2.752-3.545 4.762-6.588 4.762zM549.946 507.88h-22.596l-2.132-0.357c-2.009-0.694-3.595-2.341-4.262-4.405l-0.343-2.183v-18.262h36.070v18.262l-0.343 2.183c-0.89 2.752-3.412 4.762-6.394 4.762zM553.532 607.441c-23.921 0-43.375-19.208-43.375-42.883 0-13.828 6.699-26.16 17.026-33.953l4.037-2.704 1.684-13.663 11.411 8.478 4.551-0.759 4.665-0.263c23.921 0 43.375 19.208 43.375 42.864 0 23.675-19.454 42.883-43.375 42.883zM435.396 619.714c-23.921 0-43.451-19.208-43.451-42.883 0-23.656 19.454-42.864 43.375-42.864l4.665 0.263 4.551 0.759 11.411-8.478 1.684 13.663 4.079 2.704c10.42 7.793 17.059 20.126 17.059 33.953 0 23.675-19.454 42.883-43.375 42.883zM505.541 698.166c-26.475 0-46.365-20.609-47.027-46.535-0.227-9.122 1.684-16.218 4.542-22.123 1.817-3.728 4.012-6.945 6.207-9.86 2.858-3.652 11.336-13.304 14.042-16.294 3.107-3.469 7.436-8.621 8.792-10.242l0.424-0.507 13.247 11.62 5.207 0.317c23.937 2.725 42.483 22.579 42.483 46.654 0 25.927-18.149 46.971-47.917 46.971z" />
<glyph unicode="&#xe90d;" glyph-name="arrow-right-fill" d="M502.348 718.49c-17.868-18.11-27.71-42.084-27.71-67.529 0-25.686 9.998-49.834 28.177-67.996l56.528-56.545h-334.478c-53.414 0-96.865-43.451-96.865-96.865s43.451-96.867 96.865-96.867h334.478l-55.68-55.678c-18.162-18.162-28.558-43.399-28.558-69.276v-0.329c0.086-25.842 10.102-49.885 28.177-67.719 18.11-17.868 42.084-27.71 67.529-27.71 25.686 0 49.834 9.998 67.996 28.177l233.15 233.133c15.516 15.516 23.265 35.892 23.265 56.268s-7.749 40.752-23.265 56.268l-232.285 232.285c-18.231 18.231-43.606 28.644-69.604 28.558-25.844-0.087-49.885-10.102-67.719-28.178z" />
<glyph unicode="&#xe90e;" glyph-name="arrow-left-fill" d="M520.873 140.154c17.868 18.112 27.712 42.084 27.712 67.529 0 25.688-10 49.835-28.179 67.997l-56.528 56.543h334.48c53.414 0 96.865 43.451 96.865 96.867 0 53.412-43.451 96.865-96.865 96.865h-334.48l55.68 55.678c18.162 18.162 28.558 43.399 28.558 69.276v0.329c-0.086 25.842-10.102 49.887-28.177 67.721-18.11 17.866-42.084 27.709-67.529 27.709-25.686 0-49.834-9.998-67.996-28.176l-233.15-233.135c-15.514-15.514-23.263-35.892-23.263-56.266 0-20.378 7.749-40.754 23.263-56.27l232.285-232.284c18.231-18.231 43.606-28.646 69.606-28.56 25.842 0.089 49.884 10.104 67.717 28.178z" />
<glyph unicode="&#xe90f;" glyph-name="arrow-right-line" d="M530.461 207.744v-0.145c0.036-10.984 4.189-21.106 11.691-28.504 7.683-7.581 17.861-11.757 28.658-11.757 10.902 0 21.153 4.248 28.864 11.959l233.145 233.142c9.443 9.443 9.443 24.806 0 34.249l-232.289 232.289c-7.884 7.881-18.92 12.38-30.277 12.34-10.984-0.037-21.106-4.188-28.506-11.69-7.58-7.685-11.755-17.863-11.755-28.66 0-10.901 4.248-21.151 11.959-28.864l103.784-103.784c7.917-7.914 10.283-19.816 5.999-30.161-4.285-10.339-14.378-17.081-25.572-17.081h-401.296c-22.893 0-41.514-18.624-41.514-41.514s18.621-41.514 41.514-41.514h401.296c11.195 0 21.288-6.742 25.569-17.085 4.285-10.34 1.918-22.246-5.999-30.161l-102.928-102.929c-7.848-7.846-12.343-18.823-12.343-30.13v0zM895.226 429.563c0-20.376-7.758-40.752-23.268-56.263l-233.145-233.143c-18.166-18.167-42.314-28.172-68.003-28.172-25.441 0-49.424 9.839-67.532 27.705-18.077 17.834-28.079 41.884-28.167 67.721v0.327c0 25.887 10.394 51.117 28.553 69.276l55.683 55.685h-334.483c-53.411 0-96.865 43.454-96.865 96.865s43.454 96.865 96.865 96.865h334.483l-56.54 56.54c-18.166 18.164-28.169 42.314-28.169 68.001 0 25.441 9.839 49.424 27.705 67.532 17.834 18.076 41.882 28.079 67.721 28.167 26.001 0.088 51.37-10.32 69.604-28.553l232.289-232.289c15.51-15.51 23.268-35.887 23.268-56.263v0z" />
<glyph unicode="&#xe910;" glyph-name="arrow-left-line" d="M492.764 650.908v0.145c-0.036 10.982-4.188 21.106-11.69 28.504-7.685 7.581-17.863 11.757-28.66 11.757-10.901 0-21.151-4.248-28.862-11.959l-233.145-233.142c-9.443-9.443-9.443-24.806 0-34.249l232.289-232.289c7.882-7.881 18.918-12.38 30.277-12.34 10.982 0.037 21.106 4.188 28.504 11.69 7.581 7.685 11.757 17.863 11.757 28.66 0 10.901-4.248 21.151-11.959 28.864l-103.784 103.784c-7.917 7.914-10.283 19.816-6 30.161 4.286 10.339 14.379 17.081 25.572 17.081h401.296c22.893 0 41.514 18.624 41.514 41.514 0 22.891-18.621 41.514-41.514 41.514h-401.296c-11.193 0-21.286 6.742-25.569 17.085-4.283 10.34-1.917 22.246 6 30.161l102.928 102.929c7.848 7.846 12.342 18.823 12.342 30.13v0zM128 429.089c0 20.376 7.756 40.752 23.268 56.263l233.145 233.143c18.166 18.167 42.314 28.172 68.001 28.172 25.441 0 49.424-9.839 67.532-27.705 18.077-17.834 28.079-41.884 28.167-67.721v-0.327c0-25.887-10.394-51.117-28.553-69.276l-55.683-55.685h334.483c53.411 0 96.865-43.454 96.865-96.865s-43.454-96.865-96.865-96.865h-334.483l56.54-56.54c18.166-18.164 28.17-42.314 28.17-68.001 0-25.441-9.84-49.424-27.707-67.532-17.832-18.076-41.882-28.079-67.719-28.167-26.001-0.088-51.37 10.32-69.604 28.553l-232.289 232.289c-15.512 15.51-23.268 35.887-23.268 56.263z" />
<glyph unicode="&#xe911;" glyph-name="arrow-up-fill" d="M241.511 439.127c18.11-17.868 42.084-27.71 67.529-27.71 25.686 0 49.834 9.998 67.996 28.177l56.545 56.528v-334.478c0-53.414 43.451-96.865 96.865-96.865s96.865 43.451 96.865 96.865v334.478l55.678-55.68c18.162-18.162 43.401-28.558 69.277-28.558h0.329c25.842 0.086 49.885 10.102 67.719 28.177 17.868 18.11 27.71 42.084 27.71 67.529 0 25.686-9.998 49.834-28.177 67.996l-233.133 233.15c-15.516 15.516-35.892 23.265-56.268 23.265s-40.752-7.749-56.268-23.265l-232.285-232.285c-18.231-18.231-28.644-43.606-28.558-69.604 0.087-25.842 10.102-49.885 28.178-67.719z" />
<glyph unicode="&#xe912;" glyph-name="arrow-down-fill" d="M819.846 457.652c-18.11 17.868-42.084 27.71-67.529 27.71-25.686 0-49.834-9.998-67.996-28.177l-56.545-56.528v334.478c0 53.414-43.451 96.865-96.865 96.865s-96.865-43.451-96.865-96.865v-334.478l-55.68 55.68c-18.162 18.162-43.399 28.558-69.276 28.558h-0.329c-25.842-0.086-49.885-10.102-67.719-28.177-17.868-18.11-27.71-42.084-27.71-67.529 0-25.686 9.998-49.834 28.177-67.996l233.133-233.15c15.516-15.516 35.892-23.265 56.268-23.265s40.752 7.749 56.268 23.265l232.285 232.285c18.231 18.231 28.644 43.606 28.558 69.604-0.087 25.842-10.102 49.885-28.178 67.719z" />
<glyph unicode="&#xe913;" glyph-name="clock-fill" d="M511.005 830.026c211.435-0.255 382.768-171.586 383.005-383.005 0-211.53-171.477-383.005-383.005-383.005s-383.005 171.475-383.005 383.005c0 211.528 171.477 383.005 383.005 383.005zM529.24 792.621v-53.788c0-10.067-8.172-18.237-18.237-18.237-10.067 0-18.239 8.17-18.239 18.237v0 53.788c-176.729-9.467-317.893-150.633-327.36-327.361v0h53.788c10.065 0 18.237-8.174 18.237-18.239 0-10.067-8.172-18.239-18.237-18.239v0h-53.788c9.467-176.727 150.631-317.893 327.361-327.36v0 53.784c0 10.067 8.172 18.239 18.239 18.239 10.065 0 18.239-8.172 18.239-18.239v0-53.784c176.731 9.467 317.893 150.629 327.358 327.361v0h-53.786c-10.067 0-18.239 8.172-18.239 18.239s8.172 18.239 18.239 18.239v0h53.786c-9.465 176.727-150.631 317.893-327.361 327.36v0zM551.944 767.792c146.248-18.586 261.244-133.583 279.828-279.826v0h-28.957c-22.576 0-40.943-18.367-40.943-40.943s18.367-40.941 40.943-40.941v0h28.957c-18.584-146.248-133.581-261.246-279.826-279.832v0 28.957c0 22.578-18.367 40.945-40.941 40.945-22.576 0-40.943-18.367-40.943-40.945v0-28.957c-146.248 18.586-261.242 133.583-279.828 279.83v0h28.959c22.574 0 40.941 18.365 40.941 40.941s-18.367 40.943-40.941 40.943v0h-28.959c18.586 146.246 133.581 261.242 279.826 279.828v0-28.959c0-22.576 18.367-40.941 40.943-40.941 22.574 0 40.941 18.365 40.941 40.941v0zM511.005 657.487c-8.938 0-16.189-7.254-16.189-16.189v0-148.686c-13.713-4.906-24.495-15.688-29.399-29.399v0h-83.927c-8.936 0-16.189-7.254-16.189-16.189 0-8.938 7.254-16.189 16.189-16.189v0h83.927c8.871-25.255 36.524-38.515 61.78-29.642 25.255 8.87 38.515 36.522 29.642 61.78-4.859 13.856-15.771 24.766-29.644 29.64v0 148.686c0 8.936-7.254 16.189-16.189 16.189z" />
<glyph unicode="&#xe914;" glyph-name="arrow-up-line" d="M752.256 467.236h0.145c10.984 0.036 21.106 4.188 28.504 11.69 7.581 7.685 11.757 17.863 11.757 28.66 0 10.901-4.248 21.151-11.959 28.862l-233.142 233.145c-9.443 9.443-24.806 9.443-34.249 0l-232.289-232.289c-7.879-7.882-12.378-18.918-12.338-30.277 0.037-10.982 4.186-21.106 11.688-28.504 7.685-7.581 17.865-11.757 28.66-11.757 10.901 0 21.151 4.248 28.864 11.959l103.784 103.784c7.914 7.917 19.816 10.283 30.161 6 10.339-4.286 17.081-14.379 17.081-25.572v-401.297c0-22.891 18.624-41.514 41.514-41.514s41.515 18.622 41.515 41.514v401.297c0 11.193 6.741 21.286 17.085 25.569 10.339 4.283 22.244 1.917 30.16-6l102.929-102.928c7.846-7.848 18.825-12.342 30.13-12.342v0zM530.437 832c20.376 0 40.752-7.756 56.263-23.268l233.143-233.145c18.167-18.166 28.172-42.314 28.172-68.001 0-25.441-9.837-49.424-27.703-67.532-17.835-18.077-41.884-28.079-67.722-28.167h-0.325c-25.889 0-51.119 10.394-69.277 28.553l-55.683 55.683v-334.483c0-53.411-43.454-96.865-96.867-96.865-53.411 0-96.865 43.454-96.865 96.865v334.483l-56.54-56.54c-18.164-18.166-42.314-28.17-68.001-28.17-25.441 0-49.424 9.839-67.532 27.705-18.074 17.834-28.079 41.884-28.166 67.721-0.089 26.001 10.318 51.37 28.551 69.604l232.289 232.289c15.512 15.512 35.887 23.268 56.265 23.268h-0.002z" />
<glyph unicode="&#xe915;" glyph-name="arrow-down-line" d="M309.093 429.539h-0.145c-10.982-0.036-21.106-4.188-28.504-11.69-7.581-7.685-11.757-17.863-11.757-28.66 0-10.901 4.248-21.151 11.959-28.862l233.142-233.145c9.443-9.443 24.806-9.443 34.249 0l232.289 232.289c7.881 7.882 12.378 18.918 12.34 30.277-0.038 10.982-4.188 21.106-11.69 28.504-7.685 7.581-17.863 11.757-28.66 11.757-10.901 0-21.151-4.248-28.864-11.959l-103.784-103.786c-7.914-7.915-19.816-10.282-30.161-5.999-10.339 4.286-17.081 14.379-17.081 25.572v401.297c0 22.891-18.624 41.514-41.514 41.514-22.891 0-41.514-18.622-41.514-41.514v-401.297c0-11.193-6.742-21.286-17.085-25.569-10.34-4.283-22.246-1.917-30.161 5.999l-102.929 102.929c-7.846 7.848-18.823 12.342-30.13 12.342zM530.912 64.775c-20.376 0-40.752 7.754-56.263 23.268l-233.143 233.145c-18.167 18.166-28.172 42.314-28.172 68.001 0 25.441 9.839 49.424 27.705 67.532 17.834 18.077 41.884 28.079 67.721 28.167h0.327c25.887 0 51.117-10.394 69.276-28.553l55.685-55.683v334.483c0 53.411 43.454 96.865 96.865 96.865s96.865-43.454 96.865-96.865v-334.483l56.54 56.54c18.164 18.166 42.314 28.17 68.001 28.17 25.441 0 49.424-9.839 67.532-27.705 18.076-17.834 28.079-41.884 28.167-67.721 0.088-26.001-10.32-51.37-28.553-69.604l-232.289-232.289c-15.512-15.514-35.887-23.268-56.263-23.268z" />
<glyph unicode="&#xe916;" glyph-name="clock-line" d="M512 832l13.345-0.241c97.52-3.416 188.719-43.017 258.059-112.357 72.494-72.492 112.48-168.873 112.596-271.393 0-211.746-172.263-384.009-384-384.009s-384 172.263-384 384c0 211.737 172.263 384 384 384v0zM537.749 779.055v-44.454c0-14.2-11.551-25.749-25.749-25.749s-25.749 11.549-25.749 25.749v0 44.454c-163.318-12.749-292.557-141.988-305.306-305.306v0h44.454c14.198 0 25.749-11.551 25.749-25.749 0-14.2-11.551-25.749-25.749-25.749v0h-44.454c12.749-163.32 141.988-292.559 305.306-305.306v0 44.454c0 14.198 11.551 25.749 25.749 25.749s25.749-11.551 25.749-25.749v0-44.454c163.32 12.747 292.559 141.986 305.306 305.306v0h-44.454c-14.198 0-25.749 11.551-25.749 25.749s11.551 25.749 25.749 25.749v0h44.454c-12.747 163.318-141.986 292.557-305.306 305.306v0zM512 688.699c14.198 0 25.749-11.551 25.749-25.749v0-159.227c15.143-6.916 26.779-19.596 32.363-35.491 11.233-31.967-5.633-67.114-37.603-78.345-6.713-2.36-13.571-3.482-20.315-3.482-23.562 0-45.767 13.663-55.916 35.845v0h-87.579c-14.198 0-25.749 11.549-25.749 25.749 0 14.198 11.551 25.749 25.749 25.749v0h87.603c6.131 13.249 16.699 23.817 29.948 29.948v0 159.254c0 14.198 11.551 25.749 25.749 25.749z" />
<glyph unicode="&#xe917;" glyph-name="computer-line" d="M845.014 830.39c40.097 0 72.725-32.623 72.725-72.722v0-480.873c0-40.099-32.623-72.722-72.722-72.722v0h-236.312c0.829-18.952 4.866-64.657 24.336-85.142 6.464-6.814 13.576-9.852 23.061-9.852 11.691 0 21.2-9.509 21.2-21.2s-9.509-21.2-21.2-21.2v0h-309.132c-11.689 0-21.2 9.509-21.2 21.2s9.511 21.2 21.2 21.2c9.483 0 16.595 3.038 23.058 9.849 19.47 20.483 23.509 66.191 24.338 85.145v0h-236.311c-40.099 0-72.722 32.623-72.722 72.722v0 480.873c0 40.099 32.623 72.722 72.722 72.722v0zM566.166 204.075h-129.262c-0.799-24.268-4.933-64.438-22.055-94.994v0h173.37c-17.118 30.548-21.253 70.722-22.053 94.994v0zM875.338 341.467h-747.605v-64.671c0-16.721 13.602-30.322 30.322-30.322v0h686.961c16.721 0 30.322 13.602 30.322 30.322v0 64.671zM501.535 332.343c21.159 0 38.373-17.213 38.373-38.373s-17.213-38.373-38.373-38.373c-21.159 0-38.373 17.213-38.373 38.373s17.213 38.373 38.373 38.373zM845.014 787.991h-686.961c-16.721 0-30.322-13.602-30.322-30.322v0-373.803h747.607v373.803c0 16.721-13.603 30.322-30.324 30.322v0z" />
<glyph unicode="&#xe918;" glyph-name="admin-polichat-line" d="M845.014 830.39c40.097 0 72.725-32.623 72.725-72.722v0-480.873c0-40.099-32.623-72.722-72.722-72.722v0h-236.312c0.829-18.952 4.866-64.657 24.336-85.142 6.464-6.814 13.576-9.852 23.061-9.852 11.691 0 21.2-9.509 21.2-21.2s-9.509-21.2-21.2-21.2v0h-309.132c-11.689 0-21.2 9.509-21.2 21.2s9.511 21.2 21.2 21.2c9.483 0 16.595 3.038 23.058 9.849 19.47 20.483 23.509 66.191 24.338 85.145v0h-236.311c-40.099 0-72.722 32.623-72.722 72.722v0 480.873c0 40.099 32.623 72.722 72.722 72.722v0zM566.166 204.075h-129.262c-0.799-24.268-4.933-64.438-22.055-94.994v0h173.37c-17.118 30.548-21.253 70.722-22.053 94.994v0zM875.338 341.467h-747.605v-64.671c0-16.721 13.602-30.322 30.322-30.322v0h686.961c16.721 0 30.322 13.602 30.322 30.322v0 64.671zM501.535 332.343c21.159 0 38.373-17.213 38.373-38.373s-17.213-38.373-38.373-38.373c-21.159 0-38.373 17.213-38.373 38.373s17.213 38.373 38.373 38.373zM845.014 787.991h-686.961c-16.721 0-30.322-13.602-30.322-30.322v0-373.803h747.607v373.803c0 16.721-13.603 30.322-30.324 30.322v0zM500.111 735.957l8.216-0.215c81.627-4.277 146.665-71.894 146.665-154.45v0l-0.23-8.475c-3.813-70.143-54.668-127.884-121.462-142.504v0l-5.008-3.087c-8.609-4.747-18.492-7.457-29.016-7.457v0l-6.405 0.343c-10.515 1.131-20.187 5.010-28.383 10.817v0l-7.794 2.060c-64.285 18.799-111.447 78.073-111.447 148.304 0 85.308 69.429 154.664 154.864 154.664v0zM500.111 728.099l-8.056-0.218c-77.346-4.188-138.95-68.317-138.95-146.59 0-64.256 41.573-118.842 99.243-138.694v0l-3.341 4.572c-6.277 9.444-10.049 20.651-10.049 32.846v0 31.103h35.693v-30.485l0.33-4.092c1.954-11.986 12.354-21.115 24.93-21.115v0l4.098 0.33c12.001 1.951 21.145 12.335 21.145 24.878v0 30.485h34.442v-31.103l-0.326-6.186c-1.291-12.182-6.343-23.178-13.793-32.121v0l7.592 2.7c54.967 21.27 94.066 74.569 94.066 136.883v0l-0.218 8.045c-4.194 77.243-68.413 138.762-146.807 138.762v0zM553.142 540.039l2.046-0.342c2.57-0.888 4.415-3.399 4.415-6.317v0-17.513h-34.587v17.513l0.329 2.093c0.853 2.638 3.271 4.566 6.131 4.566v0h21.667zM467.992 540.039l2.093-0.342c2.638-0.888 4.566-3.399 4.566-6.317v0-17.513h-35.693v17.513l0.342 2.093c0.888 2.638 3.398 4.566 6.317 4.566v0h22.375zM556.581 635.51l4.844-0.277c20.663-2.376 36.75-19.764 36.75-40.843v0l-0.28-4.79c-2.407-20.431-20.015-36.313-41.314-36.313v0l-2.991 0.113-2.948 0.33-2.897 0.536-10.944-8.128-1.615 13.099-4.332 2.946c-9.64 7.49-15.864 19.153-15.864 32.206 0 22.7 18.656 41.119 41.591 41.119v0zM443.302 647.279l4.844-0.277c20.662-2.376 36.747-19.764 36.747-40.846v0l-0.323-5.14c-1.492-11.79-8.054-22.046-17.56-28.505v0l-2.386-1.504-1.615-13.103-10.942 8.131-4.365-0.729-4.474-0.252-4.844 0.277c-20.662 2.376-36.747 19.763-36.747 40.825 0 22.703 18.727 41.123 41.665 41.123v0zM510.565 722.504l5.558-0.264c25.228-2.447 40.388-21.572 40.388-44.775v0l-0.285-5.040c-2.452-21.51-20.415-38.453-42.752-39.902v0l-2.692-0.098-12.703-11.142-0.406 0.486c-1.301 1.554-5.453 6.494-8.431 9.82v0l-2.134 2.39c-3.498 3.95-9.139 10.434-11.331 13.236v0l-2.091 2.898c-1.377 2.007-2.7 4.172-3.861 6.556v0l-1.526 3.54c-1.865 4.92-3.003 10.675-2.829 17.674 0.636 24.859 19.709 44.621 45.096 44.621v0z" />
<glyph unicode="&#xe919;" glyph-name="add-fill" d="M533.332 106.667c-38.017 0-68.949 30.93-68.949 68.947v182.14l-182.099-0.034c-38.021 0-68.951 30.93-68.951 68.947 0 38.019 30.93 68.949 68.947 68.949h182.103v182.106c0 38.017 30.932 68.947 68.949 68.947s68.947-30.93 68.947-68.947l-0.034-182.106h182.14c38.017 0 68.947-30.93 68.947-68.949 0-38.017-30.93-68.947-68.947-68.947l-182.14 0.034 0.034-182.135c0-38.021-30.93-68.951-68.947-68.951z" />
<glyph unicode="&#xe91a;" glyph-name="close-fill" d="M592.039 426.686l197.674 197.679c13.549 13.544 21.013 31.542 21.013 50.676 0 19.136-7.464 37.132-21.006 50.67-27.941 27.941-73.402 27.941-101.341 0l-197.686-197.685-197.685 197.691c-27.942 27.928-73.4 27.925-101.329 0-13.551-13.545-21.013-31.542-21.013-50.677s7.462-37.132 21.006-50.669l197.681-197.686-197.674-197.681c-13.551-13.544-21.013-31.54-21.013-50.676 0-19.134 7.462-37.13 20.994-50.657 13.531-13.545 31.531-21.006 50.683-21.006 19.139 0 37.136 7.457 50.672 20.994l197.678 197.685 197.685-197.685c13.537-13.537 31.533-20.994 50.672-20.994s37.136 7.457 50.664 20.987c13.549 13.545 21.013 31.542 21.013 50.676 0 19.136-7.464 37.132-21.006 50.669l-197.681 197.688z" />
<glyph unicode="&#xe91b;" glyph-name="bell-fill" d="M736 323.872v196.128c0 110.991-84.152 202.682-192 214.659v37.341c0 6.617 5.384 12 12 12s12-5.383 12-12c0-13.254 10.744-24 24-24s24 10.746 24 24c0 33.084-26.916 60-60 60s-60-26.916-60-60v-37.341c-107.849-11.977-192-103.668-192-214.659v-196.128c-27.933-9.907-48-36.585-48-67.872 0-39.701 32.299-72 72-72h99.064c-2.005-7.776-3.064-15.828-3.064-24 0-52.935 43.065-96 96-96s96 43.065 96 96c0 8.172-1.059 16.224-3.064 24h99.064c39.701 0 72 32.299 72 72 0 31.287-20.067 57.965-48 67.872zM520 688c92.635 0 168-76.63 168-170.823v-165.177c0-13.254-10.744-24-24-24s-24 10.746-24 24v165.177c0 67.725-53.832 122.823-120 122.823-13.256 0-24 10.746-24 24s10.744 24 24 24zM712 232h-384c-13.233 0-24 10.767-24 24s10.767 24 24 24h384c13.233 0 24-10.767 24-24s-10.767-24-24-24v0z" />
<glyph unicode="&#xe91c;" glyph-name="training-fill" d="M544.978 755.422c0.36 0 0.726-0.044 1.090-0.134 34.197-8.499 59.211-39.193 59.211-76.058 0-12.363-2.871-24.051-7.971-34.447-5.538-11.284-8.581-23.625-8.581-36.195v-78.046c1.039 0 1.833-0.019 2.65-0.080 22.876-1.685 40.566-14.633 38.568-41.773-1.948-26.431-21.851-56.575-44.020-56.575l-1.786 0.066c-8.344 0.615-14.505 4.021-18.879 9.407-6.458-9.503-14.101-18.127-22.693-25.705v-79.979h2.892c6.693 0 13.324-0.268 19.885-0.782 3.818-0.299 7.609-0.686 11.376-1.154 0.534-0.066 1.067-0.136 1.598-0.204 3.544-0.463 7.068-1.003 10.565-1.614 0.738-0.127 1.473-0.259 2.207-0.395 67.213-12.339 125.059-51.431 162.097-105.837 0.843-1.239 1.669-2.491 2.489-3.745 0.447-0.682 0.905-1.356 1.344-2.040 25.042-39.061 39.564-85.511 39.564-135.354 0-11.476-9.305-20.778-20.778-20.778h-656.655c-11.476 0-20.778 9.303-20.778 20.778 0 138.691 112.433 251.124 251.124 251.124h2.893v81.702c-8.208 7.522-15.479 16.040-21.647 25.359-4.418-6.182-10.894-10.119-19.927-10.784l-1.786-0.066c-22.166 0-42.074 30.144-44.020 56.575-1.998 27.139 15.692 40.088 38.568 41.773l1.194 0.066 1.169 0.021c0.761 0 1.508-0.026 2.239-0.078v106.946c0 44.504 36.077 80.583 80.581 80.585h96.55c24.481 0 45.63 14.245 55.626 34.895 0.762 1.577 2.354 2.528 4.044 2.528zM918.798 832c30.013 0 54.764-22.984 57.572-52.277l0.265-5.562v-463.388c0-30.014-22.984-54.764-52.275-57.572l-5.562-0.265-155.129 0.032c-18.681 24.243-41.095 45.052-66.807 61.993-30.924 20.378-65.030 34.092-101.372 40.765-0.809 0.148-1.615 0.294-2.425 0.435-3.849 0.67-7.748 1.266-11.592 1.769-0.585 0.077-1.168 0.151-1.753 0.225-4.145 0.515-8.342 0.94-12.475 1.264-0.104 0.007-0.207 0.016-0.31 0.024l-0.025 28.227 383.648-0.018v386.51c0 17.514-14.249 31.761-31.761 31.761h-775.626c-16.055 0-29.366-11.971-31.473-27.457l-0.29-4.304v-386.51l216.57 0.018 0.039-28.215c-65.495-5.015-126.386-32.931-173.327-79.871-8.114-8.114-15.66-16.646-22.618-25.546-24.806 4.792-44.020 25.574-46.474 51.175l-0.265 5.562v463.387c0 30.016 22.984 54.766 52.275 57.574l5.562 0.265h775.628zM758.227 663.8l4.060-1.899 86.749-50.084c7.893-4.557 12.602-12.718 12.602-21.83 0-7.811-3.46-14.923-9.419-19.666l-3.183-2.166-86.749-50.085c-3.946-2.277-8.276-3.417-12.605-3.417-13.957 0.396-22.889 10.387-24.823 21.509l-0.383 3.738v100.169c0 9.113 4.711 17.274 12.602 21.832 6.577 3.798 14.216 4.431 21.148 1.899z" />
<glyph unicode="&#xe91d;" glyph-name="bell-line" d="M556 832c33.084 0 60-26.916 60-60 0-13.254-10.744-24-24-24s-24 10.746-24 24c0 6.617-5.384 12-12 12s-12-5.383-12-12l0.027-37.327c107.838-11.988 191.973-103.69 191.973-214.673l0.031-196.124c27.921-9.915 47.969-36.599 47.969-67.876 0-39.701-32.299-72-72-72l-99.045 0.024c2.008-7.781 3.045-15.846 3.045-24.024 0-52.935-43.065-96-96-96s-96 43.065-96 96c0 8.178 1.037 16.243 3.045 24.024l-99.045-0.024c-39.701 0-72 32.299-72 72 0 31.294 20.069 57.989 48.012 67.892l-0.012 196.108c0 110.998 84.157 202.709 192.016 214.677l-0.016 37.323c0 33.084 26.916 60 60 60zM561.574 184h-83.148c-4.185-7.236-6.426-15.495-6.426-24 0-26.467 21.533-48 48-48s48 21.533 48 48c0 8.505-2.241 16.764-6.426 24zM712 280h-384c-13.233 0-24-10.767-24-24s10.767-24 24-24h384c13.233 0 24 10.767 24 24s-10.767 24-24 24zM520 688c-92.635 0-168-75.365-168-168v-192h336v192c0 92.635-75.365 168-168 168z" />
<glyph unicode="&#xe91e;" glyph-name="training-line" d="M896.651 831.428c34.493 0 62.554-28.063 62.554-62.558v0-447.337c0-34.493-28.061-62.554-62.554-62.554v0h-150.084c33.242-44.885 51.409-99.615 51.409-155.612 0-21.707-17.661-39.368-39.368-39.368v0h-156.228c-10.648 0-19.309 8.663-19.309 19.311 0 10.646 8.661 19.309 19.309 19.309v0h156.228c0.407 0 0.751 0.343 0.751 0.748 0 123.028-100.090 223.118-223.117 223.118v0h-189.173c-123.028 0-223.118-100.090-223.118-223.118 0-0.405 0.345-0.748 0.75-0.748v0h421.224c10.646 0 19.308-8.663 19.308-19.309 0-10.648-8.661-19.311-19.308-19.311v0h-421.224c-21.707 0-39.368 17.661-39.368 39.368 0 56.363 18.407 111.444 52.064 156.492-29.517 5.006-52.064 30.757-52.064 61.675v0 359.076c0 10.648 8.663 19.311 19.309 19.311 10.648 0 19.309-8.663 19.309-19.311v0-278.137h165.512c10.648 0 19.309-8.661 19.309-19.309s-8.661-19.309-19.309-19.309v0h-165.515v-42.319c0-13.199 10.74-23.939 23.941-23.939v0h23.929c43.905 39.645 99.956 63.267 158.732 66.969v0 52.048c-1.904 1.961-3.768 3.991-5.579 6.070-5.571-2.138-11.244-3.253-16.926-3.324-33.303 0-59.27 38.215-61.796 72.51-1.684 22.872 7.45 36.899 15.405 44.64 6.843 6.655 15.826 11.491 26.218 14.155v0 86.201c0 53.538 43.559 97.097 97.099 97.099v0h93.204c15.599 0 29.515 8.734 36.32 22.79 4.847 10.001 16.19 15.316 26.991 12.638 42.284-10.508 71.812-48.406 71.812-92.16 0-14.637-3.252-28.688-9.666-41.763-4.127-8.408-6.309-17.55-6.309-26.435v0-58.877c9.584-2.749 17.919-7.413 24.332-13.649 7.957-7.739 17.091-21.764 15.407-44.638-2.526-34.296-28.49-72.511-61.712-72.511-5.573 0.002-11.15 1.223-15.62 2.744-2.198-2.482-4.527-4.944-6.969-7.362v0-12.27h367.832v366.4c0 13.201-10.74 23.939-23.939 23.939v0h-748.76c-13.201 0-23.941-10.739-23.941-23.939v0-33.661c0-10.648-8.661-19.311-19.308-19.311-10.648 0-19.311 8.663-19.311 19.311v0 33.661c0 34.494 28.063 62.558 62.558 62.558v0zM920.587 363.854h-358.967c55.531-5.413 108.179-28.609 149.869-66.258v0h185.16c13.199 0 23.937 10.74 23.937 23.939v0 42.319zM369.168 387.853v-22.751h144.974l-0.002 21.761c-20.897-10.512-44.038-16.024-67.581-16.024v0h-7.927c-24.272 0-48.058 5.853-69.465 17.014v0zM542.336 728.323c-14.753-20.474-38.835-32.977-64.157-32.977v0h-93.207c-32.246-0.002-58.481-26.236-58.481-58.484v0-115.262c0-61.835 50.308-112.141 112.143-112.141v0h7.927c61.835 0 112.141 50.307 112.143 112.143v0 87.434c0 14.742 3.546 29.764 10.258 43.445 3.795 7.735 5.721 16.061 5.721 24.749 0 22.048-12.804 41.968-32.347 51.093zM288.464 508.707c-2.926-2.934-4.169-7.643-3.702-14.002 0.655-8.892 4.321-18.778 9.803-26.445 1.921-2.685 3.857-4.803 5.689-6.401-6.403 14.831-10.399 30.696-11.789 46.848zM716.483 665.576c9.702 5.604 21.288 5.601 30.99 0v0l83.561-48.243c9.701-5.601 15.494-15.633 15.494-26.836 0-11.205-5.794-21.237-15.494-26.838v0l-83.563-48.246c-4.751-2.74-10.108-4.189-15.494-4.189v0c-19.581 0.553-30.527 16.289-30.983 30.817v0l-0.003 96.698c0 11.203 5.794 21.236 15.492 26.838zM739.523 625.672v-70.352l60.927 35.175-60.927 35.177z" />
<glyph unicode="&#xe91f;" glyph-name="protocol-line" d="M813.053 818.526c30.437 0 55.202-24.751 55.202-55.188 0-23.256-14.7-43.816-36.339-51.685v0-583.208c0-2.722-1.644-5.187-4.163-6.225-2.479-1.037-5.403-0.472-7.343 1.469v0l-31.569 31.569-67.907-67.921c-1.267-1.253-2.978-1.967-4.77-1.967s-3.503 0.714-4.756 1.967v0l-67.934 67.921-67.907-67.921c-2.52-2.52-6.993-2.52-9.526 0v0l-67.921 67.921-67.907-67.921c-2.533-2.52-7.006-2.52-9.526 0v0l-67.921 67.921-67.907-67.921c-2.533-2.52-7.006-2.52-9.526 0v0l-67.921 67.921-31.582-31.569c-1.927-1.94-4.824-2.506-7.33-1.469-2.52 1.037-4.163 3.503-4.163 6.225v0 583.208c-21.639 7.869-36.339 28.429-36.339 51.685 0 30.437 24.765 55.188 55.188 55.188v0zM794.217 744.488h-592.182v-541.305l0.62 0.62c1.253 1.267 2.964 1.967 4.756 1.967s3.503-0.701 4.77-1.967v0l67.907-67.921 67.921 67.921c2.52 2.52 6.993 2.52 9.526 0v0l67.907-67.921 67.921 67.921c1.267 1.267 2.978 1.967 4.756 1.967 1.792 0 3.503-0.701 4.77-1.967v0l67.921-67.921 67.907 67.921c2.52 2.52 7.006 2.52 9.526 0v0l67.921-67.921 67.907 67.921c2.533 2.52 7.006 2.52 9.526 0v0l0.62-0.62v541.305zM667.705 327.262c6.683 0 12.113-5.403 12.113-12.099 0-6.71-5.43-12.126-12.113-12.126v0h-181.693c-6.683 0-12.113 5.416-12.113 12.126 0 6.696 5.43 12.099 12.113 12.099v0zM719.678 323.75c4.595 4.487 12.598 4.487 17.192 0 2.183-2.291 3.517-5.322 3.517-8.596 0-3.153-1.334-6.292-3.517-8.596-2.304-2.183-5.443-3.517-8.596-3.517s-6.306 1.334-8.596 3.517c-2.183 2.304-3.517 5.443-3.517 8.596 0 3.274 1.334 6.306 3.517 8.596zM350.158 555.99c1.94 0 3.773-0.835 5.053-2.291s1.873-3.395 1.617-5.322v0l-6.872-52.547h19.2l7.397 54.339c0.445 3.341 3.301 5.821 6.669 5.821v0h18.594c1.94 0 3.773-0.835 5.053-2.291s1.873-3.395 1.617-5.322v0l-6.872-52.547h18.149c3.719 0 6.737-3.005 6.737-6.737v0-18.58c0-3.719-3.018-6.737-6.737-6.737v0h-22.717l-3.988-32.202h19.456c3.719 0 6.737-3.005 6.737-6.737v0-18.58c0-3.719-3.018-6.737-6.737-6.737v0h-24.024l-7.411-55.875c-0.445-3.355-3.301-5.861-6.683-5.861v0h-18.89c-1.94 0-3.786 0.849-5.066 2.304-1.28 1.469-1.873 3.395-1.617 5.322v0l7.181 54.11h-19.16l-7.424-55.875c-0.431-3.355-3.301-5.861-6.669-5.861v0h-18.904c-1.94 0-3.786 0.849-5.066 2.304-1.28 1.469-1.873 3.395-1.617 5.322v0l7.181 54.11h-18.136c-3.719 0-6.737 3.018-6.737 6.737v0 18.58c0 3.732 3.018 6.737 6.737 6.737v0h22.744l4.231 32.202h-19.416c-3.719 0-6.737 3.018-6.737 6.737v0 18.58c0 3.732 3.018 6.737 6.737 6.737v0h24.037l7.397 54.339c0.458 3.341 3.315 5.821 6.683 5.821v0zM728.27 412.052c6.683 0 12.113-5.403 12.113-12.099 0-6.71-5.43-12.126-12.113-12.126v0h-121.128c-6.683 0-12.113 5.416-12.113 12.126 0 6.696 5.43 12.099 12.113 12.099v0zM510.239 412.054c6.683 0 12.113-5.416 12.113-12.113s-5.43-12.113-12.113-12.113v0h-24.226c-6.696 0-12.113 5.416-12.113 12.113s5.416 12.113 12.113 12.113v0zM550.090 408.548c4.595 4.473 12.719 4.473 17.206 0 2.169-2.183 3.517-5.322 3.517-8.596s-1.347-6.306-3.517-8.61c-2.304-2.169-5.457-3.517-8.61-3.517-3.139 0-6.292 1.347-8.596 3.517-2.169 2.304-3.517 5.457-3.517 8.61 0 3.139 1.347 6.306 3.517 8.596zM364.831 463.776h-19.16l-4.217-32.202h19.16l4.217 32.202zM728.27 496.849c6.683 0 12.113-5.416 12.113-12.113s-5.43-12.113-12.113-12.113v0h-181.693c-6.683 0-12.113 5.416-12.113 12.113s5.43 12.113 12.113 12.113v0zM489.526 493.335c4.595 4.487 12.719 4.487 17.192 0 2.183-2.291 3.517-5.322 3.517-8.596s-1.334-6.292-3.517-8.596c-2.304-2.183-5.443-3.517-8.596-3.517s-6.292 1.334-8.596 3.517c-2.183 2.304-3.517 5.322-3.517 8.596s1.334 6.306 3.517 8.596zM719.678 578.132c4.473 4.487 12.706 4.487 17.192 0 2.183-2.291 3.517-5.457 3.517-8.61 0-3.139-1.334-6.292-3.517-8.596-2.304-2.169-5.322-3.517-8.596-3.517-3.153 0-6.306 1.347-8.596 3.517-2.183 2.304-3.517 5.457-3.517 8.596 0 3.288 1.334 6.319 3.517 8.61zM667.71 581.639c6.683 0 12.113-5.416 12.113-12.113s-5.43-12.113-12.113-12.113v0h-181.693c-6.696 0-12.113 5.416-12.113 12.113s5.416 12.113 12.113 12.113v0zM619.256 690.66c6.683 0 12.099-5.416 12.099-12.113s-5.416-12.113-12.099-12.113c-6.683 0-12.113 5.416-12.113 12.113s5.43 12.113 12.113 12.113zM570.809 690.66c6.683 0 12.099-5.416 12.099-12.113s-5.416-12.113-12.099-12.113c-6.696 0-12.113 5.416-12.113 12.113s5.416 12.113 12.113 12.113zM667.705 690.66c6.696 0 12.113-5.416 12.113-12.113s-5.416-12.113-12.113-12.113c-6.683 0-12.099 5.416-12.099 12.113s5.416 12.113 12.099 12.113zM522.349 690.66c6.696 0 12.113-5.416 12.113-12.113s-5.416-12.113-12.113-12.113c-6.683 0-12.113 5.416-12.113 12.113s5.43 12.113 12.113 12.113zM716.164 690.66c6.683 0 12.099-5.416 12.099-12.113s-5.416-12.113-12.099-12.113c-6.696 0-12.113 5.416-12.113 12.113s5.416 12.113 12.113 12.113zM376.994 690.66c6.696 0 12.113-5.416 12.113-12.113s-5.416-12.113-12.113-12.113c-6.696 0-12.113 5.416-12.113 12.113s5.416 12.113 12.113 12.113zM425.448 690.66c6.696 0 12.113-5.416 12.113-12.113s-5.416-12.113-12.113-12.113c-6.696 0-12.113 5.416-12.113 12.113s5.416 12.113 12.113 12.113zM473.902 690.66c6.683 0 12.113-5.416 12.113-12.113s-5.43-12.113-12.113-12.113c-6.696 0-12.113 5.416-12.113 12.113s5.416 12.113 12.113 12.113zM764.611 690.66c6.683 0 12.113-5.416 12.113-12.113s-5.43-12.113-12.113-12.113c-6.683 0-12.113 5.416-12.113 12.113s5.43 12.113 12.113 12.113zM328.546 690.66c6.683 0 12.113-5.416 12.113-12.113s-5.43-12.113-12.113-12.113c-6.696 0-12.113 5.416-12.113 12.113s5.416 12.113 12.113 12.113zM280.092 690.66c6.696 0 12.113-5.416 12.113-12.113s-5.416-12.113-12.113-12.113c-6.696 0-12.113 5.416-12.113 12.113s5.416 12.113 12.113 12.113zM231.638 690.66c6.696 0 12.113-5.416 12.113-12.113s-5.416-12.113-12.113-12.113c-6.696 0-12.113 5.416-12.113 12.113s5.416 12.113 12.113 12.113z" />
<glyph unicode="&#xe920;" glyph-name="perfil-line" d="M732.327 330.675l3.976-0.567c5.284-1.284 9.748-4.544 12.576-9.184 7.984-13.108 21.924-20.932 37.292-20.932 74.668 0 135.416-60.752 135.416-135.416v0-72.924c0-11.22-9.124-20.344-20.34-20.344-11.22 0-20.348 9.124-20.348 20.344v0 72.924c0 25.324-9.848 49.116-27.728 67-17.884 17.88-41.676 27.724-67 27.724-29.684 0-56.616 15.124-72.044 40.456-5.836 9.576-2.788 22.12 6.792 27.96 4.644 2.828 10.108 3.68 15.384 2.392zM700.638 828c96.308 0 174.656-78.348 174.656-174.656v0-66.868c0-27.476 7.976-53.92 23.056-76.48 42.064-62.924 41.488-143.86-1.468-206.184-6.368-9.236-19.064-11.572-28.292-5.208-9.24 6.364-11.576 19.056-5.208 28.296 33.428 48.512 33.88 111.508 1.14 160.484-14.444 21.608-23.864 45.932-27.804 71.488v0-63.116c0-95.456-77.66-173.112-173.112-173.112-13.464 0-26.828 1.56-39.852 4.64-3.12-16.22-10.892-30.956-22.548-42.772v0l62.4-48.308 39.128 30.292c8.88 6.86 21.672 5.228 28.54-3.632 6.86-8.876 5.232-21.676-3.632-28.544v0l-51.58-39.932c-7.336-5.684-17.576-5.676-24.912 0v0l-87.728 67.92c-7.284-1.996-14.792-3.008-22.38-3.008v0l-8.386-0.362c-22.159-1.925-42.721-11.472-58.618-27.362-17.88-17.88-27.728-41.676-27.728-67v0-72.924c0-11.22-9.124-20.344-20.344-20.344-11.216 0-20.344 9.124-20.344 20.344v0 72.924c0 42.268 19.532 81.632 52.736 107.256-67.576 60.852-80.712 161.28-29.66 237.916 15.188 22.796 23.216 49.328 23.216 76.728v0 66.86c0 96.312 78.352 174.664 174.66 174.664v0zM367.646 780.017c34.576 0 65.9-14.164 88.496-36.984-6.572-12.44-11.82-25.672-15.56-39.528-15.66 23.664-42.5 39.308-72.936 39.308v0h-90.308c-35.704 0-67.34-21.42-80.596-54.568-2.84-7.104-9.62-11.692-17.272-11.692-9.472 0-17.176-7.704-17.176-17.18v0-82.284c5.064 14.948 14.348 28.264 27.112 38.388 20.104 15.96 46.080 21.644 71.264 15.604 22.452-5.388 38.68-13.548 53-20.744 20.752-10.44 38.664-19.48 70.656-17.952 4.912 0.224 9.684-1.46 13.364-4.8 3.688-3.348 5.852-7.932 6.084-12.908 0.48-10.248-7.464-18.976-17.704-19.456-41.256-1.936-65.376 10.084-88.728 21.692-13.6 6.76-27.66 13.748-45.348 17.992-3.676 0.88-7.384 1.312-11.048 1.312-10.276 0-20.244-3.404-28.428-9.9-11.168-8.864-17.52-22.152-17.432-36.468v0l0.112-14.332c0.104-11.74 0.224-25.46 0.224-41.964 0-62.080 50.508-112.588 112.592-112.588 27.104 0 52.004 9.628 71.452 25.644 0.068-14.128 1.644-28.196 4.684-41.976-33.056-19.684-71.816-25.808-109.492-17.128-0.968-4.628-2.384-9.128-4.232-13.468v0l37.348-41.496 12.704 14.616c3.26 3.748 7.784 6.004 12.74 6.352 4.968 0.34 9.756-1.264 13.504-4.524 6.168-5.364 7.908-13.46 5.052-20.716v0l12.292-14.156 6.38 28.956c-8.004 5.748-14.856 13.124-20.012 21.588-2.584 4.24-3.36 9.236-2.188 14.064 1.176 4.828 4.16 8.912 8.404 11.492 4.236 2.592 9.236 3.36 14.064 2.192 4.828-1.176 8.908-4.156 11.496-8.396 3.104-5.104 7.324-9.196 12.216-12.156 6.164-14.992 14.212-29.352 24.104-42.748-1.748 0.112-3.484 0.264-5.26 0.264-2.54 0-5.1 0.14-7.656 0.404v0l-13.176-59.788c-1.52-6.9-6.724-12.272-13.584-14.012-6.856-1.748-13.992 0.488-18.628 5.82v0l-3.644 4.2 9.644-77.16c0.616-4.932-0.724-9.808-3.772-13.728-3.052-3.92-7.448-6.42-12.38-7.040-0.78-0.096-1.552-0.144-2.32-0.144-9.236 0-17.268 6.9-18.444 16.296v0l-12.952 103.632c-2.244-1.136-4.696-1.796-7.256-1.944-3.28-0.212-6.544 0.496-9.432 1.94v0l-12.956-103.628c-1.272-10.172-10.572-17.42-20.76-16.148-10.18 1.276-17.424 10.588-16.156 20.764v0l9.648 77.16-3.652-4.2c-4.624-5.332-11.764-7.576-18.628-5.82-6.856 1.74-12.060 7.112-13.58 14.012v0l-13.172 59.784c-2.548-0.264-5.108-0.4-7.656-0.4-44.236 0-80.22-35.984-80.22-80.216v0-62.628c0-10.256-8.344-18.604-18.604-18.604-10.256 0-18.6 8.348-18.6 18.604v0 62.628c0 62.616 49.26 113.94 111.108 117.408v0l6.312 0.012v-6.268l0.628 6.204c0.148-0.068 13.896-0.464 25.052 10.664 6.344 6.324 10.048 14.584 10.56 23.456-46.232 24.056-76.484 69.892-80.344 121.664-20.032 7.348-33.56 26.28-33.56 47.928v0 129.152c0 25.084 17.66 47.1 41.72 52.892 21.2 41.896 63.18 67.752 110.528 67.752v0zM490.454 558.901l-1.991-10.834c-4.731-21.597-13.458-42.203-25.897-60.875-41.492-62.28-28.624-144.384 29.924-190.988v0l4.468-3.556c14.172 4.876 28.98 7.344 44.084 7.344 23.464 0 42.66 18.584 43.552 41.764-57.332 29.54-94.1 89.428-94.1 153.996v0l-0.040 63.149zM700.642 787.312h-74.068c-73.868 0-133.964-60.1-133.964-133.976v0-61.948c3.332 6.7 10.252 11.32 18.228 11.32 11.22 0 20.348-9.128 20.348-20.348v0-86.604c0-73.016 59.404-132.424 132.424-132.424 73.016 0 132.42 59.408 132.42 132.424v0 66.672c-28.448 4.124-50.54 22.16-61.252 49.888-24.276-14.74-49.984-27.076-76.572-36.732-46.384-16.844-87.292-21.904-90.204-21.904-10.080 0-18.732 7.536-20.132 17.528-1.556 11.104 6.216 21.408 17.32 22.964 61.472 8.608 120.788 32.144 171.536 68.064 6.252 4.42 14.36 4.96 21.148 1.424 6.8-3.544 10.992-10.5 10.948-18.152 0-0.216 0.38-26.516 19.464-37.996 10.756-6.472 21.772-5.372 25.92-4.956 1.016 0.104 1.752 0.152 2.168 0.152 7.944 0 14.9-4.612 18.236-11.356v0 61.992c0 73.868-60.1 133.968-133.968 133.968v0z" />
<glyph unicode="&#xe921;" glyph-name="contacts-line" d="M755.444 832c50.451-0.034 91.314-40.978 91.24-91.429v0-585.143c-0.012-50.486-40.943-91.405-91.429-91.429v0h-432.091c-50.486 0.023-91.405 40.942-91.429 91.429v0 39.497h-42.783c-10.102 0-18.286 8.189-18.286 18.286s8.183 18.286 18.286 18.286v0h42.783v119.954h-42.783c-10.102 0-18.286 8.183-18.286 18.286 0 10.097 8.183 18.286 18.286 18.286v0h42.783v119.954h-42.783c-10.102 0-18.286 8.189-18.286 18.286 0 10.102 8.183 18.286 18.286 18.286v0h42.783v119.954h-42.783c-10.102 0-18.286 8.189-18.286 18.286s8.183 18.286 18.286 18.286v0h42.971v39.497c0.018 50.486 40.942 91.405 91.429 91.429v0zM755.444 795.429h-432.091c-30.258-0.086-54.771-24.599-54.857-54.857v0-39.497h42.783c10.102 0 18.286-8.189 18.286-18.286s-8.183-18.286-18.286-18.286v0h-42.783v-119.954h42.783c10.102 0 18.286-8.183 18.286-18.286 0-10.097-8.183-18.286-18.286-18.286v0h-42.783v-119.954h42.783c10.102 0 18.286-8.189 18.286-18.286 0-10.102-8.183-18.286-18.286-18.286v0h-42.783v-119.954h42.783c10.102 0 18.286-8.189 18.286-18.286s-8.183-18.286-18.286-18.286v0h-42.783v-39.497c0.086-30.258 24.599-54.771 54.857-54.857v0h432.091c30.258 0.086 54.766 24.599 54.857 54.857v0 585.143c-0.091 30.258-24.599 54.771-54.857 54.857v0zM579.653 387.356l2.723-0.297c2.709-0.657 4.999-2.332 6.448-4.712 4.064-6.668 11.154-10.65 18.973-10.65v0l6.877-0.334c15.881-1.554 30.601-8.483 42.021-19.903 13.052-13.052 20.24-30.416 20.24-48.897v0-37.198c0-5.756-4.681-10.437-10.437-10.437s-10.437 4.681-10.437 10.437v0 37.198c0 26.611-21.652 48.26-48.263 48.26-15.161 0-28.918 7.727-36.797 20.666-1.451 2.38-1.889 5.183-1.23 7.892s2.333 5 4.713 6.45c2.379 1.451 5.18 1.889 7.892 1.229zM539.562 640.98c23.682 0.911 51.008-4.918 71.307-15.224 3.132-1.586 5.244-4.62 5.648-8.113 0.133-1.153 0.075-2.3-0.161-3.398 20.869-6.368 38.058-19.67 49.935-38.717 2.576-4.157 1.951-9.69-1.476-13.161-6.905-7.003-10.705-16.286-10.705-26.134v0-42.955c0-5.755-4.683-10.437-10.437-10.437-4.753 0-8.773 3.192-10.028 7.544 0-19.471-0.003-19.572-0.004-19.64l-0.374-7.54c-2.291-24.914-14.934-47.46-35.413-62.656-21.179-15.713-47.483-21.093-72.859-15.062-1.93-9.927-7.279-18.777-15.218-25.152 6.668-9.345 16.754-15.699 28.18-17.642 12.674-2.149 25.593 1.369 35.445 9.661 2.133 1.793 4.829 2.649 7.616 2.414 2.778-0.24 5.297-1.543 7.093-3.678 1.793-2.133 2.651-4.836 2.412-7.616-0.238-2.777-1.545-5.296-3.676-7.089-14.785-12.447-34.165-17.597-53.163-14.13-17.964 3.278-33.517 13.88-43.119 29.276-2.569-0.47-5.184-0.705-7.807-0.705-26.611 0-48.261-21.65-48.261-48.261v0-37.199c0-5.755-4.683-10.436-10.437-10.436s-10.437 4.681-10.437 10.436v0 37.199c0 38.121 31.015 69.135 69.136 69.135 11.924 0 21.68 9.434 22.155 21.206-27.585 14.2-45.613 41.511-47.775 72.346-11.861 4.176-19.901 15.294-19.901 28.025v0 32.647c-1.428 66.357 39.695 112.633 102.327 115.060zM485.644 530.493c-1.251 0-2.421-0.29-3.379-0.726-1.339-0.61-4.454-2.532-4.476-7.21v0-51.058c0-37.214 30.275-67.49 67.489-67.49s67.492 30.277 67.492 67.49v0 23.517c0 5.755 4.681 10.436 10.436 10.436 4.753 0 8.774-3.192 10.029-7.545v0 19.605c-1.176-4.070-4.781-7.184-9.245-7.519-22.136-1.657-43.584 2.959-62.626 13.414 0.603-1.235 1.353-2.411 2.243-3.502 2.633-3.234 3.1-7.562 1.216-11.29-1.889-3.733-5.629-5.919-9.823-5.724-23.548 1.166-46.333 10.272-64.161 25.641-1.654 1.428-3.498 1.962-5.193 1.962zM579.099 615.425c-43.723 12.184-77.387-0.543-94.9-17.424-21.979-21.188-25.77-51.174-26.093-66.997 2.314 7.809 7.882 14.282 15.625 17.785 10.347 4.68 22.126 2.977 30.738-4.446 9.949-8.58 21.785-14.738 34.535-18.014-0.859 6.859 0.167 13.894 3.034 20.348 1.321 2.977 3.896 5.127 7.066 5.901 3.171 0.771 6.447 0.048 8.994-1.988 18.139-14.516 40.983-21.549 64.326-19.782 0.26 0.019 0.522 0.028 0.781 0.028 4.69 0 8.763-3.142 10.031-7.544v0 12.939c0 12.357 3.953 24.415 11.189 34.301-11.4 14.847-28.533 24.438-47.471 26.466v0l-11.068 1.185c-4.817 0.516-8.515 4.092-9.201 8.9-0.449 3.135 0.477 6.126 2.415 8.341z" />
<glyph unicode="&#xe922;" glyph-name="protocol-fill" d="M844.8 832.001c28.237 0 51.2-22.963 51.2-51.2 0-23.795-16.384-43.661-38.4-49.382v0-621.517l-38.4 38.4-76.8-76.8-76.8 76.8-76.8-76.8-76.8 76.8-76.8-76.8-76.8 76.8-76.8-76.8-76.8 76.8-38.4-38.4v621.517c-22.016 5.722-38.4 25.587-38.4 49.382 0 28.237 22.963 51.2 51.2 51.2v0zM764.288 316.289c-4.864 4.736-13.312 4.736-18.176 0-2.304-2.419-3.712-5.619-3.712-9.088 0-3.328 1.408-6.656 3.712-9.088 2.432-2.304 5.76-3.712 9.088-3.712s6.656 1.408 9.088 3.712c2.304 2.432 3.712 5.76 3.712 9.088 0 3.469-1.408 6.669-3.712 9.088zM691.2 320.001h-192c-7.066 0-12.8-5.722-12.8-12.8s5.734-12.8 12.8-12.8v0h192c7.066 0 12.8 5.722 12.8 12.8s-5.734 12.8-12.8 12.8v0zM338.778 550.593h-17.357c-3.2 0-5.914-2.355-6.349-5.542v0l-7.027-51.61h-22.835c-3.533 0-6.4-2.854-6.4-6.4v0-17.651c0-3.546 2.867-6.4 6.4-6.4v0h18.445l-4.006-30.592h-21.619c-3.533 0-6.4-2.854-6.4-6.4v0-17.651c0-3.533 2.867-6.4 6.4-6.4v0h17.229l-6.81-51.405c-0.243-1.83 0.307-3.661 1.523-5.056 1.216-1.382 2.97-2.189 4.813-2.189v0h17.958c3.213 0 5.926 2.381 6.349 5.568v0l7.040 53.082h18.202l-6.81-51.405c-0.243-1.83 0.307-3.661 1.523-5.056 1.216-1.382 2.97-2.189 4.813-2.189v0h17.958c3.2 0 5.914 2.381 6.336 5.568v0l7.040 53.082h22.822c3.546 0 6.4 2.867 6.4 6.4v0 17.651c0 3.546-2.854 6.4-6.4 6.4v0h-18.483l3.802 30.592h21.568c3.533 0 6.4 2.854 6.4 6.4v0 17.651c0 3.546-2.867 6.4-6.4 6.4v0h-17.242l6.528 49.92c0.243 1.83-0.32 3.674-1.523 5.056-1.216 1.382-2.97 2.176-4.813 2.176v0h-17.664c-3.2 0-5.914-2.355-6.336-5.542v0l-7.027-51.61h-18.24l6.528 49.92c0.243 1.83-0.32 3.674-1.523 5.056-1.216 1.382-2.97 2.176-4.813 2.176v0zM755.2 409.601h-128c-7.066 0-12.8-5.722-12.8-12.8s5.734-12.8 12.8-12.8v0h128c7.066 0 12.8 5.722 12.8 12.8s-5.734 12.8-12.8 12.8v0zM585.088 405.889c-4.736 4.736-13.312 4.736-18.176 0-2.304-2.419-3.712-5.76-3.712-9.088s1.408-6.656 3.712-9.088c2.432-2.304 5.76-3.712 9.088-3.712s6.656 1.408 9.088 3.712c2.304 2.432 3.712 5.632 3.712 9.088 0 3.469-1.408 6.784-3.712 9.088zM524.8 409.601h-25.6c-7.066 0-12.8-5.722-12.8-12.8s5.734-12.8 12.8-12.8v0h25.6c7.066 0 12.8 5.722 12.8 12.8s-5.734 12.8-12.8 12.8v0zM352.727 462.994l-4.006-30.592h-18.214l4.006 30.592h18.214zM755.2 499.201h-192c-7.066 0-12.8-5.722-12.8-12.8s5.734-12.8 12.8-12.8v0h192c7.066 0 12.8 5.722 12.8 12.8s-5.734 12.8-12.8 12.8v0zM521.088 495.489c-4.736 4.736-13.312 4.736-18.176 0-2.304-2.419-3.712-5.619-3.712-9.088 0-3.456 1.408-6.656 3.712-9.088 2.432-2.304 5.76-3.712 9.088-3.712s6.656 1.408 9.088 3.712c2.304 2.432 3.712 5.632 3.712 9.088 0 3.469-1.408 6.669-3.712 9.088zM764.288 585.089c-4.736 4.736-13.44 4.736-18.176 0-2.304-2.419-3.712-5.619-3.712-9.088 0-3.328 1.408-6.656 3.712-9.088 2.432-2.304 5.76-3.712 9.088-3.712 3.456 0 6.656 1.408 9.088 3.712 2.304 2.432 3.712 5.76 3.712 9.088s-1.408 6.669-3.712 9.088zM691.2 588.801h-192c-7.066 0-12.8-5.722-12.8-12.8s5.734-12.8 12.8-12.8v0h192c7.066 0 12.8 5.722 12.8 12.8s-5.734 12.8-12.8 12.8v0zM204.8 704.001h-25.6c-7.066 0-12.8-5.722-12.8-12.8v0l0.338-2.938c1.327-5.659 6.406-9.862 12.462-9.862v0h25.6c7.066 0 12.8 5.722 12.8 12.8s-5.734 12.8-12.8 12.8v0zM771.942 704.001h-47.258c-7.066 0-12.8-5.722-12.8-12.8s5.734-12.8 12.8-12.8v0h47.258c7.066 0 12.8 5.722 12.8 12.8s-5.734 12.8-12.8 12.8v0zM677.414 704.001h-47.258c-7.066 0-12.8-5.722-12.8-12.8s5.734-12.8 12.8-12.8v0h47.258c7.066 0 12.8 5.722 12.8 12.8s-5.734 12.8-12.8 12.8v0zM582.886 704.001h-47.258c-7.066 0-12.8-5.722-12.8-12.8s5.734-12.8 12.8-12.8v0h47.258c7.066 0 12.8 5.722 12.8 12.8s-5.734 12.8-12.8 12.8v0zM488.358 704.001h-47.258c-7.066 0-12.8-5.722-12.8-12.8s5.734-12.8 12.8-12.8v0h47.258c7.066 0 12.8 5.722 12.8 12.8s-5.734 12.8-12.8 12.8v0zM393.856 704.001h-47.258c-7.066 0-12.8-5.722-12.8-12.8s5.734-12.8 12.8-12.8v0h47.258c7.066 0 12.8 5.722 12.8 12.8s-5.734 12.8-12.8 12.8v0zM299.315 704.001h-47.258c-7.066 0-12.8-5.722-12.8-12.8s5.734-12.8 12.8-12.8v0h47.258c7.066 0 12.8 5.722 12.8 12.8s-5.734 12.8-12.8 12.8v0zM844.8 704.001h-25.6c-7.066 0-12.8-5.722-12.8-12.8s5.734-12.8 12.8-12.8v0h25.6c7.066 0 12.8 5.722 12.8 12.8v0l-0.338 2.938c-1.327 5.659-6.406 9.862-12.462 9.862v0zM844.8 806.401h-665.6c-14.118 0-25.6-11.482-25.6-25.6 0-9.459 5.158-17.741 12.8-22.157v0 34.957h691.2v-34.957c7.642 4.416 12.8 12.698 12.8 22.157 0 14.118-11.469 25.6-25.6 25.6v0z" />
<glyph unicode="&#xe923;" glyph-name="perfil-fill" d="M812.921 284.311l7.587-0.657c65.209-7.586 115.726-62.915 115.726-130.175v0-75.041c0-7.019-5.686-12.705-12.701-12.705v0h-489.038c-7.015 0-12.701 5.686-12.701 12.705v0 75.041c0 69.859 54.503 126.831 123.318 130.833 3.080 0.182 6.123-0.756 8.564-2.647v0l117.566-91.016c4.575-3.539 10.971-3.539 15.55 0v0l117.562 91.016c2.44 1.891 5.487 2.828 8.568 2.647v0zM207.032 307.41c0.991 0.173 1.941-0.442 2.155-1.42v0l19.745-89.604c1.945-8.828 13.159-11.693 19.093-4.86v0l9.844 11.334c3.572 4.113 10.31 1.107 9.633-4.298v0l-11.52-92.135c-0.69-5.521-5.38-9.662-10.938-9.662v0h-148.686c-6.086 0-11.025 4.934-11.025 11.029v0 65.131c0 62.889 50.915 113.804 113.804 113.804 2.676 0 5.314 0.235 7.895 0.681zM311.906 239.893c6.507 2.023 13.238-2.432 14.084-9.195v0l12.693-101.541c0.822-6.582-4.311-12.395-10.942-12.395v0h-38.247c-6.631 0-11.764 5.814-10.942 12.395v0l12.693 101.541c0.846 6.751 7.573 11.239 14.063 9.199 1.982-0.623 4.608-0.628 6.598-0.004zM410.199 307.406c2.585-0.442 5.219-0.677 7.895-0.677 1.652 0 3.291-0.050 4.926-0.12 5.405-9.579 11.644-18.779 18.758-27.45 4.872-5.946 11.731-9.501 18.952-10.397-33.875-27.132-55.453-68.843-55.453-115.287v0-36.715h-33.086c-5.562 0-10.252 4.146-10.942 9.662v0l-11.516 92.139c-0.677 5.401 6.057 8.411 9.629 4.298v0l9.844-11.33c5.929-6.829 17.148-3.989 19.093 4.852v0l19.745 89.608c0.215 0.979 1.169 1.586 2.155 1.416zM747.337 311.275c5.302 1.986 11.186 0.054 14.526-4.53 1.837-2.527 3.729-4.662 5.814-6.747 4.381-4.352 3.923-11.561-0.954-15.323v0l-79.93-61.894c-4.587-3.539-10.971-3.539-15.562 0v0l-80.008 61.956c-4.827 3.733-5.302 10.876-0.966 15.162 2.184 2.147 4.183 4.48 5.954 6.982 3.283 4.608 9.332 6.322 14.629 4.335 43.85-16.38 92.664-16.372 136.498 0.058zM229.399 316.764c-0.396 1.796 1.903 3.117 3.212 1.66v0l36.967-41.071c1.862-2.069 1.887-5.203 0.066-7.304v0l-16.702-19.233c-2.973-3.419-8.572-1.994-9.546 2.428v0zM384.622 318.423c1.28 1.425 3.621 0.178 3.217-1.656v0l-13.997-63.521c-0.974-4.426-6.578-5.851-9.546-2.432v0l-16.702 19.233c-1.825 2.102-1.796 5.236 0.066 7.304v0zM345.887 323.327c5.26 1.185 8.948-5.046 5.335-9.047v0l-34.407-38.227c-4.381-4.881-12.015-4.881-16.401 0v0l-34.407 38.227c-3.605 4.001 0.078 10.232 5.339 9.047 24.407-5.492 50.081-5.504 74.541 0zM717.772 827.853c94.249-0.33 170.83-77.134 170.83-171.462v0-68.798c0-29.82 8.729-58.702 25.274-83.518 43.689-65.602 40.035-152.985-10.38-214.425-4.042-4.93-11.111-6.033-16.537-2.688-23.899 14.741-52.067 23.019-81.829 23.019-20.98 0-23.49 17.738-13.853 24.526 50.184 35.382 83.035 93.787 83.035 159.736v0 89.105c0 22.545-19.729 40.721-42.855 37.81-3.303-0.417-9.683-0.607-15.306 2.791-10.764 6.478-11.652 23.581-11.702 24.564-0.037 31.517-36.302 49.325-61.291 30.183-62.902-48.219-140.358-67.634-216.316-57.571-22.883 3.035-43.128-14.807-43.128-37.777v0-89.105c0-65.949 32.855-124.354 83.043-159.736 9.629-6.788 7.11-24.522-13.861-24.522-29.213 0-57.323-7.953-81.837-23.048-5.417-3.34-12.478-2.226-16.512 2.692-49.689 60.594-54.776 147.807-10.397 214.445 16.545 24.815 25.278 53.698 25.278 83.518v0 68.798c0 94.551 76.924 171.48 171.479 171.48v0zM758.612 658.534c8.365 6.404 20.501 0.388 20.43-10.162 0-0.322 0.128-31.818 24.010-46.208 12.193-7.317 25.005-7.032 31.562-6.206 7.701 0.946 14.291-5.075 14.291-12.606v0-89.109c0-93.679-76.214-169.893-169.893-169.893-93.675 0-169.893 76.214-169.893 169.893v0 89.109c0 7.684 6.759 13.593 14.369 12.589 82.354-10.905 166.606 10.067 235.124 62.592zM160.793 547.077c-0.312 50.494 46.482 88.621 96.65 76.589 52.038-12.499 66.903-37.756 116.889-40.477 6.829 0 17.255-2.564 67.497 11.479 3.993 1.119 8.299-0.116 11.082-3.204v0-3.873c0-26.562-7.783-52.274-22.507-74.364-27.9-41.893-37.834-92.259-30.386-140.115-25.15-19.927-56.898-31.872-91.4-31.872-81.321 0-147.477 66.159-147.477 147.481 0 24.043-0.239 41.233-0.348 58.356zM369.26 778.34c40.291 0 75.974-19.662 98.031-49.899-9.249-22.202-14.381-46.538-14.381-72.052v0-40.299c-5.38 1.375-11.202 1.441-17.012-0.182-25.786-7.209-44.573-10.323-48.735-10.694-52.261-2.341-64.838 25.55-124.581 39.899-63.876 15.339-124.238-33.115-123.842-98.159 0.035-5.247 0.1-13.009 0.14-17.743l0.033-3.873c0.066-7.903-11.842-8.353-12.189-0.454-0.002 0.040-0.003 0.072-0.005 0.099l-0.040 136.204c0 24.052 17.7 44.049 40.761 47.657 19.79 42.438 61.969 69.496 109.271 69.496v0z" />
<glyph unicode="&#xe924;" glyph-name="contacts-fill" d="M647.776 244.534c0-3.655-2.963-6.618-6.618-6.618h-254.779c-3.655 0-6.618 2.963-6.618 6.618v39.094c0 37.745 30.559 68.302 68.302 68.302 3.442 0 5.666-1.735 6.645-4.17 21.844-54.279 99.114-51.756 118.111-0.237 0.985 2.668 3.546 4.435 6.391 4.409 40.081-0.386 68.565-32.125 68.565-68.305v-39.094zM513.768 372.653c-49.564 0-88.509 40.823-88.509 87.492v55.143c0.215 21.936 26.12 33.494 42.783 19.124 10.161-8.76 21.98-15.185 34.791-18.951 4.312-1.267 8.635 2.115 8.422 6.604-0.269 5.664 0.828 11.255 3.086 16.335 1.775 3.977 6.811 5.175 10.183 2.481 20.603-16.486 45.782-23.607 70.642-21.731 3.892 0.281 7.115-2.787 7.115-6.602v-52.081c-0.382-48.491-39.938-87.815-88.513-87.815v0zM560.968 353.744c-6.393-19.697-25.897-32.956-47.101-32.956-21.498 0-40.135 14.401-47.208 32.781-0.917 2.374-0.338 5.072 1.431 6.884 0.985 1.009 1.844 2.037 2.596 3.080 1.725 2.39 4.859 3.295 7.62 2.262 23.257-8.685 48.641-8.329 70.931 0.002 2.762 1.033 5.899 0.133 7.622-2.262 0.762-1.062 1.639-2.109 2.646-3.134 1.711-1.745 2.224-4.325 1.462-6.657v0zM437.375 606.76c37.839 36.478 98.499 34.184 143.164 12.722 4.272-2.016 5.279-7.789 1.44-11.084 22.282-5.547 41.735-19.594 54.438-40.219 1.572-2.537 1.283-6.2-0.953-8.47-8.064-8.181-12.507-19.025-12.507-30.525 0-48.836 0.012-45.467-0.024-46.327-0.213-4.787-7.419-4.546-7.419 0.245v29.449c0 11.448-9.727 20.666-21.341 19.795-21.968-1.653-43.732 4.739-61.388 18.868-10.133 8.108-25.25 4.469-30.541-7.445-0.758-1.705-1.417-3.452-1.978-5.227-1.244-3.953-5.76-5.879-9.401-3.904-5.054 2.742-9.805 6.025-14.182 9.799-25.207 21.715-64.351 4.158-64.663-29.025v-32.312c0-4.789-7.208-5.030-7.417-0.245-0.038 0.856-0.026-1.574-0.026 35.493-0.366 16.793 2.133 58.855 32.797 88.412v0zM749.144 832.001h-470.153c-36.247-0.040-65.618-29.411-65.658-65.658v-48.949h52.524c7.694 0 13.927-6.234 13.927-13.927 0-7.686-6.234-13.927-13.927-13.927h-52.524v-142.454h52.524c7.694 0 13.927-6.24 13.927-13.927 0-7.694-6.234-13.927-13.927-13.927h-52.524v-142.46h52.524c7.694 0 13.927-6.234 13.927-13.927 0-7.686-6.234-13.927-13.927-13.927h-52.524v-142.454h52.524c7.694 0 13.927-6.24 13.927-13.927 0-7.694-6.234-13.927-13.927-13.927h-52.524v-48.947c0.040-36.249 29.411-65.62 65.658-65.658h470.153c36.249 0.038 65.62 29.409 65.658 65.658v636.684c-0.038 36.247-29.409 65.618-65.658 65.658v0z" />
<glyph unicode="&#xe925;" glyph-name="user-woman-fill" d="M777.997 443.587c-8.686-6.594-12.262-17.611-9.117-28.054 16.112-53.41-18.481-108.986-69.783-121.833-2.882-0.722-5.951-0.41-8.606 0.921-21.742 10.9-45.745 16.553-70.453 16.553-21.084 0-23.618 17.838-13.926 24.67 50.024 35.264 82.915 93.276 83.493 158.869v67.027c0 84.528-68.769 153.297-153.281 153.297h-10.953c-4.487 11.927-14.833 21.348-28.245 24.078-20.725 4.231-40.971-9.165-45.186-29.906-16.058-78.574-79.396-127.929-156.761-135.558-21.060-2.092-36.436-20.853-34.36-41.913 1.884-19.080 17.452-33.498 36.005-34.488 0-66.792 32.553-125.494 83.506-161.414 9.7-6.839 7.161-24.662-13.937-24.662-24.669 0-48.676-5.635-70.453-16.553-2.655-1.332-5.724-1.643-8.606-0.921-51.266 12.839-85.909 68.379-69.783 121.833 3.145 10.442-0.431 21.459-9.117 28.054-49.947 37.939-49.93 116.123 0 154.047 8.686 6.594 12.262 17.611 9.117 28.054-18.109 60.027 27.867 123.313 90.547 124.62 10.905 0.24 20.278 7.041 23.87 17.34 20.618 59.205 94.992 83.378 146.495 47.613 8.957-6.227 20.533-6.227 29.507 0 51.496 35.762 125.855 11.605 146.511-47.613 3.577-10.299 12.949-17.1 23.854-17.34 62.687-1.308 108.655-64.597 90.547-124.62-3.145-10.442 0.431-21.459 9.117-28.054 49.946-37.939 49.928-116.121-0.002-154.047v0zM536.324 689.49h-36.452c0.766 3.145 1.485 6.323 2.14 9.532 1.405 6.914-3.066 13.652-9.979 15.057-6.914 1.421-13.652-3.050-15.057-9.963-2.25-11.086-5.459-21.415-6.482-24.206 0-0.032-0.016-0.048-0.016-0.080-25.813-76.843-94.37-123.843-172.776-131.614-7.025-0.687-12.151-6.946-11.464-13.955 0.648-6.522 6.246-12.036 13.971-11.464 5.86 0.575 13.396 1.581 22.162 3.289v-29.618c0-94.204 76.64-170.844 170.844-170.844 93.757 0 170.11 75.906 170.844 169.503v66.613c0 70.445-57.305 127.75-127.734 127.75v0zM480.441 188.747v-110.415c0-7.054-5.719-12.773-12.773-12.773h-220.341c-7.054 0-12.773 5.719-12.773 12.773v75.459c0 70.257 54.807 127.545 124.006 131.571 3.098 0.18 6.16-0.76 8.614-2.66l108.314-83.856c3.125-2.417 4.954-6.147 4.954-10.099v0zM579.227 284.015l-78.189-60.53c-4.614-3.561-11.033-3.561-15.647 0l-78.189 60.53c-5.908 4.582-6.658 13.252-1.565 18.745 1.549 1.675 2.991 3.446 4.316 5.304 3.304 4.637 9.385 6.361 14.718 4.367 44.956-16.823 94.012-16.13 137.095 0 5.333 1.996 11.416 0.271 14.72-4.367 1.32-1.854 2.759-3.621 4.308-5.288 5.076-5.493 4.357-14.178-1.566-18.761zM751.875 153.791v-75.459c0-7.054-5.719-12.773-12.773-12.773h-220.341c-7.054 0-12.773 5.719-12.773 12.773v110.415c0 3.952 1.83 7.682 4.954 10.101l108.314 83.856c2.454 1.9 5.517 2.84 8.614 2.66 69.221-4.027 124.006-61.336 124.006-131.572v0z" />
<glyph unicode="&#xe926;" glyph-name="channels-fill" d="M727.331 271.687l-55.868 32.253c5.724 17.009 8.874 35.203 8.874 54.141 0 82.694-59.142 151.546-137.43 166.647v70.108c50.679 14.39 87.817 60.979 87.817 116.272 0 66.765-54.126 120.892-120.892 120.892-66.768 0-120.892-54.126-120.892-120.892 0-55.722 37.712-102.611 88.999-116.608v-69.825c-78.137-15.223-137.124-84.007-137.124-166.593 0-19.007 3.173-37.263 8.933-54.326l-57.683-33.304c-21.903 22.093-52.269 35.786-85.84 35.786-66.765 0-120.892-54.126-120.892-120.892 0-66.768 54.126-120.895 120.892-120.895s120.892 54.126 120.892 120.895c0 9.776-1.191 19.265-3.382 28.368l58.237 33.625c31.131-36.12 77.181-59.017 128.604-59.017 51.495 0 97.601 22.957 128.732 59.166l55.492-32.039c-2.468-9.627-3.78-19.712-3.78-30.104 0-66.768 54.123-120.895 120.892-120.895 66.765 0 120.889 54.126 120.889 120.895 0 66.765-54.123 120.892-120.889 120.892-32.935 0-62.78-13.19-84.581-34.551z" />
<glyph unicode="&#xe927;" glyph-name="set-line" d="M863.492 830.74l-718.437-234.757c-20.29-6.63-23.224-34.228-4.758-44.964l271.504-157.875c8.566-4.981 19.271-4.38 27.223 1.527l76.322 56.679-56.679-76.322c-5.905-7.954-6.506-18.661-1.527-27.225l157.875-271.505c10.749-18.481 38.34-15.515 44.966 4.758l234.757 718.438c6.297 19.291-12.049 37.523-31.246 31.246zM630.053 149.002l-121.874 209.594 146.959 197.888c7.322 9.863 6.314 23.602-2.372 32.288s-22.426 9.696-32.288 2.372l-197.888-146.961-209.592 121.876 619.477 202.422-202.423-619.478z" />
<glyph unicode="&#xe928;" glyph-name="set-fill" d="M881.912 817.953c-13.104 13.056-32.639 17.52-50.063 11.232l-671.986-240.005c-18.096-6.432-30.623-23.089-31.775-42.241-1.152-19.2 9.216-37.201 26.447-45.841l220.124-110.018 281.322 200.933-200.972-281.382 110.014-220.133c8.208-16.272 24.864-26.497 42.959-26.497 1.008 0 1.968 0.048 2.928 0.096 19.2 1.152 35.855 13.632 42.335 31.777l239.995 672.015c6.192 17.424 1.776 36.961-11.328 50.065z" />
<glyph unicode="&#xe929;" glyph-name="company-line" d="M646.174 832c8.285 0 15-6.715 15-15v0-232.658c12.645 3.697 26.004 5.684 39.826 5.684 78.416 0 142.213-63.797 142.213-142.213 0-5.93-0.369-11.871-1.102-17.748 33.064-20.104 53.889-56.496 53.889-95.631 0-61.646-50.156-111.803-111.803-111.803-24.932 0-48.879 8.514-68.197 23.361v0-65.332c22.764-3.287 43.529-14.021 59.42-30.797 7.875 2.725 16.201 4.137 24.58 4.137 41.355 0 75-33.645 75-75 0-8.285-6.721-15-15-15v0h-717c-8.285 0-15 6.715-15 15v0 72c0 8.285 6.715 15 15 15v0h44.18v258c0 8.285 6.715 15 15 15 8.279 0 15-6.715 15-15v0-258h69.82v156c0 8.285 6.715 15 15 15v0h204.041c0.393 16.945 4.682 33.311 12.158 48v0h-2.385c-8.279 0-15 6.715-15 15v0 72c0 8.285 6.721 15 15 15v0h48.463c3.035 10.57 7.271 20.637 12.539 30.053-0.328-0.023-0.662-0.053-1.002-0.053h-60c-8.279 0-15 6.715-15 15v0 72c0 8.285 6.721 15 15 15v0h60c8.285 0 15-6.715 15-15v0-66.381c11.191 13.705 24.879 25.283 40.359 34.049v0 230.332h-414v-258c0-8.285-6.715-15-15-15-8.279 0-15 6.715-15 15v0 273c0 8.285 6.721 15 15 15v0zM701 151.75c-34.975 0-64.26-24.809-71.197-57.75v0h212.625c-6.187 17.461-22.875 30-42.428 30-7.547 0-15.012-1.904-21.586-5.508-6.539-3.586-14.725-1.816-19.207 4.148-13.893 18.498-35.109 29.109-58.207 29.109zM615.559 136h-457.559v-42h441.357c2.256 15.363 7.916 29.625 16.201 42v0zM407 307h-90v-141h90v141zM557 240.684v-74.684h74.18v57.48c-4.418-0.545-8.877-0.85-13.377-0.85-22.412 0-43.289 6.656-60.803 18.053v0zM509.416 307h-72.416v-141h90v103.33c-8.051 11.197-14.104 23.924-17.584 37.67v0zM686 245.992c-7.629-5.865-15.973-10.729-24.82-14.479v0-57.797c7.828 3.305 16.148 5.654 24.82 6.932v0zM701 560.025c-61.875 0-112.213-50.338-112.213-112.213 0-7.676 0.785-15.357 2.326-22.822 1.395-6.779-2.021-13.629-8.273-16.594-28.453-13.477-46.84-42.51-46.84-73.963 0-45.105 36.697-81.803 81.803-81.803 27.346 0 53.115 13.957 68.197 36.662v0 72.604l-46.805 46.805c-5.859 5.859-5.859 15.357 0 21.217s15.352 5.859 21.211 0v0l25.594-25.594v36.475c0 8.285 6.721 15 15 15 8.285 0 15-6.715 15-15v0-69l34.055 34.055c5.859 5.854 15.352 5.854 21.211 0 5.859-5.859 5.859-15.357 0-21.217v0l-55.266-55.266v-40.078c15.082-22.705 40.852-36.662 68.197-36.662 45.105 0 81.803 36.697 81.803 81.803 0 31.453-18.387 60.486-46.84 73.963-6.252 2.965-9.674 9.814-8.268 16.594 1.541 7.471 2.32 15.146 2.32 22.822 0 61.875-50.338 112.213-112.213 112.213zM455.82 487c8.279 0 15-6.715 15-15v0-72c0-8.285-6.721-15-15-15v0h-60c-8.285 0-15 6.715-15 15v0 72c0 8.285 6.715 15 15 15v0zM335.82 487c8.279 0 15-6.715 15-15v0-72c0-8.285-6.721-15-15-15v0h-60c-8.285 0-15 6.715-15 15v0 72c0 8.285 6.715 15 15 15v0zM559.092 457h-28.271v-42h9.563c5.883 5.684 12.41 10.752 19.506 15.064-0.732 5.877-1.102 11.813-1.102 17.748 0 3.088 0.111 6.146 0.305 9.187v0zM320.82 457h-30v-42h30v42zM440.82 457h-30v-42h30v42zM202.174 499c3.943 0 7.816-1.605 10.605-4.395s4.395-6.662 4.395-10.605c0-3.943-1.605-7.816-4.395-10.605s-6.662-4.395-10.605-4.395c-3.943 0-7.811 1.605-10.605 4.395-2.789 2.789-4.395 6.662-4.395 10.605s1.605 7.816 4.395 10.605c2.789 2.789 6.662 4.395 10.605 4.395zM455.82 619c8.279 0 15-6.715 15-15v0-72c0-8.285-6.721-15-15-15v0h-60c-8.285 0-15 6.715-15 15v0 72c0 8.285 6.715 15 15 15v0zM335.82 619c8.279 0 15-6.715 15-15v0-72c0-8.285-6.721-15-15-15v0h-60c-8.285 0-15 6.715-15 15v0 72c0 8.285 6.715 15 15 15v0zM440.82 589h-30v-42h30v42zM320.82 589h-30v-42h30v42zM560.82 589h-30v-42h30v42zM575.82 751c8.279 0 15-6.715 15-15v0-72c0-8.285-6.721-15-15-15v0h-60c-8.285 0-15 6.715-15 15v0 72c0 8.285 6.715 15 15 15v0zM455.82 751c8.279 0 15-6.715 15-15v0-72c0-8.285-6.721-15-15-15v0h-60c-8.285 0-15 6.715-15 15v0 72c0 8.285 6.715 15 15 15v0zM335.82 751c8.279 0 15-6.715 15-15v0-72c0-8.285-6.721-15-15-15v0h-60c-8.285 0-15 6.715-15 15v0 72c0 8.285 6.715 15 15 15v0zM560.82 721h-30v-42h30v42zM440.82 721h-30v-42h30v42zM320.82 721h-30v-42h30v42z" />
<glyph unicode="&#xe92a;" glyph-name="finish-line" d="M681.746 569.846c11.719-11.719 11.719-30.715 0-42.428l-201.258-201.264c-11.719-11.713-30.709-11.713-42.428 0l-95.807 95.813c-11.719 11.713-11.719 30.709 0 42.422 11.713 11.719 30.709 11.719 42.422 0l74.596-74.596 180.047 180.053c11.719 11.713 30.715 11.713 42.428 0v0zM896 448c0-212.256-171.773-384-384-384-212.256 0-384 171.773-384 384 0 212.256 171.773 384 384 384 212.256 0 384-171.773 384-384zM836 448c0 179.092-144.932 324-324 324-179.092 0-324-144.932-324-324 0-179.092 144.932-324 324-324 179.092 0 324 144.932 324 324z" />
<glyph unicode="&#xe92b;" glyph-name="company-fill" d="M646.174 832c7.25 0 13.297-5.141 14.695-11.977l0.305-3.023v-232.658c12.645 3.697 26.004 5.684 39.826 5.684 78.416 0 142.213-63.797 142.213-142.213 0-5.93-0.369-11.871-1.102-17.748 33.064-20.104 53.889-56.496 53.889-95.631 0-61.646-50.156-111.803-111.803-111.803-22.161 0-43.545 6.727-61.591 18.65l-6.606 4.712v-65.332c22.764-3.287 43.529-14.021 59.42-30.797 7.875 2.725 16.201 4.137 24.58 4.137 41.355 0 75-33.645 75-75 0-7.25-5.146-13.297-11.978-14.695l-3.022-0.305h-717c-7.25 0-13.297 5.141-14.695 11.977l-0.305 3.023v72c0 7.25 5.141 13.297 11.977 14.695l3.023 0.305h44.18v258c0 7.25 5.141 13.297 11.977 14.695l3.023 0.305-0.006 30c-3.943 0-7.811 1.605-10.605 4.395-2.789 2.789-4.395 6.662-4.395 10.605s1.605 7.816 4.395 10.605c2.092 2.092 4.793 3.518 7.677 4.1l2.928 0.294v30c-7.244 0-13.295 5.141-14.695 11.977l-0.305 3.023v273c0 7.25 5.146 13.297 11.978 14.695l3.022 0.305h444zM509.416 307h-72.416v-141h90v103.33c-8.051 11.197-14.104 23.924-17.584 37.67zM407 307h-90v-141h90v141zM686 245.992c-5.086-3.91-10.49-7.375-16.148-10.362l-8.672-4.117v-57.797c5.219 2.203 10.656 3.982 16.271 5.301l8.549 1.63v65.344zM701 560.025c-61.875 0-112.213-50.338-112.213-112.213 0-7.676 0.785-15.357 2.326-22.822 1.395-6.779-2.021-13.629-8.273-16.594-2.433-1.152-4.792-2.418-7.072-3.79l0.053 67.393h-60v-72l53.152 0.038c-20.417-15.274-32.972-39.613-32.972-65.605 0-45.105 36.697-81.803 81.803-81.803 25.067 0 48.809 11.728 64.209 31.171l3.988 5.491v72.604l-46.805 46.805c-5.859 5.859-5.859 15.357 0 21.217 5.022 5.022 12.714 5.74 18.499 2.152l2.712-2.152 25.594-25.594v36.475c0 8.285 6.721 15 15 15 7.25 0 13.297-5.141 14.695-11.977l0.305-3.023v-69l34.055 34.055c5.859 5.854 15.352 5.854 21.211 0 5.022-5.022 5.74-12.718 2.152-18.504l-2.152-2.713-55.266-55.266v-40.078c15.082-22.705 40.852-36.662 68.197-36.662 45.105 0 81.803 36.697 81.803 81.803 0 31.453-18.387 60.486-46.84 73.963-6.252 2.965-9.674 9.814-8.268 16.594 1.541 7.471 2.32 15.146 2.32 22.822 0 61.875-50.338 112.213-112.213 112.213zM335.82 472h-60v-72h60v72zM455.82 472h-60v-72h60v72zM335.82 604h-60v-72h60v72zM455.82 604h-60v-72h60v72zM575.82 604h-60v-72h60v72zM335.82 736h-60v-72h60v72zM455.82 736h-60v-72h60v72zM575.82 736h-60v-72h60v72z" />
<glyph unicode="&#xe92c;" glyph-name="finish-fill" d="M512 832c-211.746 0-384-172.254-384-384s172.254-384 384-384c211.746 0 384 172.254 384 384s-172.254 384-384 384zM706.625 529.375l-208.002-207.996c-6.24-6.24-14.432-9.381-22.623-9.381s-16.383 3.141-22.623 9.381l-103.998 103.998c-12.516 12.51-12.516 32.736 0 45.246 12.51 12.516 32.73 12.516 45.246 0l81.375-81.375 185.379 185.373c12.51 12.516 32.73 12.516 45.246 0 12.51-12.51 12.51-32.73 0-45.246z" />
<glyph unicode="&#xe92d;" glyph-name="queue-line" d="M879.616 558.944c10.848-36.096 16.384-73.408 16.384-110.944 0-211.744-172.256-384-384-384-103.392 0-200.156 40.577-271.416 112.637l1.016-88.381c0.16-13.248-10.464-24.128-23.744-24.256h-0.256c-13.12 0-23.84 10.56-24 23.744l-1.601 144c-0.063 6.4 2.433 12.576 6.945 17.152s10.656 7.104 17.056 7.104h144c13.248 0 24-10.752 24-24s-10.752-24-24-24l-82.815-0.095c62.021-61.384 145.563-95.905 234.815-95.905 185.28 0 336 150.72 336 336 0 32.832-4.832 65.472-14.336 97.088-3.84 12.672 3.328 26.080 16.032 29.92 12.704 3.808 26.080-3.36 29.92-16.064zM512 640c105.888 0 192-86.112 192-192s-86.112-192-192-192c-105.888 0-192 86.112-192 192s86.112 192 192 192zM512 592c-79.392 0-144-64.608-144-144s64.608-144 144-144c79.392 0 144 64.608 144 144s-64.608 144-144 144zM808 832c13.248 0 24-10.752 24-24v-144c0-13.248-10.752-24-24-24h-144c-13.248 0-24 10.752-24 24s10.752 24 24 24l82.857 0.053c-62.025 61.41-145.585 95.947-234.857 95.947-185.28 0-336-150.72-336-336 0-32.832 4.832-65.472 14.336-97.088 3.84-12.672-3.328-26.080-16.032-29.92-2.304-0.672-4.64-0.992-6.944-0.992-10.304 0-19.84 6.688-22.976 17.088-10.848 36.064-16.384 73.376-16.384 110.912 0 211.744 172.256 384 384 384 103.7 0 200.733-40.819 272.052-113.281l-0.052 89.281c0 13.248 10.752 24 24 24zM512 544c13.248 0 24-10.752 24-24v-68.48l31.008-24.8c10.336-8.288 12.032-23.36 3.744-33.728-4.736-5.92-11.712-8.992-18.752-8.992-5.28 0-10.56 1.728-15.008 5.28l-40 32c-5.696 4.544-8.992 11.424-8.992 18.72v80c0 13.248 10.752 24 24 24z" />
<glyph unicode="&#xe92e;" glyph-name="queue-fill" d="M848.257 575.437c12.775 3.864 26.029-3.353 29.862-16.033 10.859-35.994 16.384-73.233 16.384-110.696 0-211.331-171.92-383.251-383.251-383.251-79.109 0-154.003 24.273-216.825 67.772v0l-59.979-60.65c-14.819-15.043-40.784-4.695-40.976 16.576v0l-1.598 143.719c-0.063 6.388 2.46 12.52 6.932 17.087s10.635 7.122 17.023 7.122v0h143.719c21.239 0 31.97-25.678 17.023-40.816v0l-48.066-48.609c53.464-35.004 116.477-54.294 182.747-54.294 184.919 0 335.345 150.458 335.345 335.345 0 32.768-4.823 65.344-14.34 96.867-3.833 12.679 3.353 26.029 16.001 29.862zM511.251 640.334c105.682 0 191.626-85.944 191.626-191.626s-85.944-191.626-191.626-191.626c-105.682 0-191.626 85.944-191.626 191.626s85.944 191.626 191.626 191.626zM789.748 824.934c15.138 15.138 40.88 4.312 40.88-16.927v0-143.719c0-13.222-10.731-23.953-23.953-23.953v0h-143.719c-21.366 0-32.001 25.869-16.927 40.88v0l48.29 48.322c-53.559 35.131-116.668 54.518-183.066 54.518-184.919 0-335.345-150.458-335.345-335.345 0-32.768 4.823-65.344 14.34-96.867 3.833-12.679-3.353-26.029-16.001-29.862-12.807-3.801-26.061 3.417-29.862 16.033-10.859 35.994-16.384 73.233-16.384 110.696 0 211.331 171.92 383.251 383.251 383.251 79.333 0 154.418-24.432 217.367-68.155v0zM511.283 576.459c-17.662 0-31.938-14.308-31.938-31.938v0-103.797c0-10.060 4.727-19.546 12.775-25.55v0l63.875-55.891c14.053-10.571 34.077-7.761 44.681 6.388 10.603 14.116 7.729 34.141-6.356 44.713v0l-51.1 46.31v87.828c0 17.63-14.276 31.938-31.938 31.938z" />
<glyph unicode="&#xe92f;" glyph-name="talks-line" d="M512 832c-212.227 0-384-171.744-384-384 0-67.354 17.566-133.137 50.924-191.156l-49.477-153.645c-3.451-10.711-0.615-22.453 7.342-30.41 7.881-7.881 19.594-10.822 30.41-7.342l153.645 49.477c58.020-33.357 123.803-50.924 191.156-50.924 212.227 0 384 171.744 384 384 0 212.227-171.744 384-384 384zM512 124c-60.838 0-120.141 16.975-171.498 49.090-7.389 4.617-16.564 5.865-25.102 3.117l-110.912-35.719 35.719 110.912c2.707 8.414 1.564 17.602-3.123 25.102-32.109 51.357-49.084 110.66-49.084 171.498 0 178.652 145.348 324 324 324s324-145.348 324-324c0-178.652-145.348-324-324-324zM549.5 448c0-20.707-16.787-37.5-37.5-37.5s-37.5 16.793-37.5 37.5c0 20.713 16.787 37.5 37.5 37.5s37.5-16.787 37.5-37.5zM699.5 448c0-20.707-16.787-37.5-37.5-37.5s-37.5 16.793-37.5 37.5c0 20.713 16.787 37.5 37.5 37.5s37.5-16.787 37.5-37.5zM399.5 448c0-20.707-16.787-37.5-37.5-37.5-20.707 0-37.5 16.793-37.5 37.5 0 20.713 16.793 37.5 37.5 37.5 20.713 0 37.5-16.787 37.5-37.5z" />
<glyph unicode="&#xe930;" glyph-name="talks-fill" d="M512 832c212.256 0 384-171.773 384-384 0-212.256-171.773-384-384-384-62.172 0-123.007 14.968-177.632 43.507l-13.524 7.417-153.645-49.477c-10.816-3.48-22.529-0.539-30.41 7.342-6.82 6.82-9.878 16.422-8.439 25.771l1.098 4.639 49.477 153.645c-33.357 58.020-50.924 123.803-50.924 191.156 0 212.256 171.773 384 384 384zM512 485.5c-20.713 0-37.5-16.787-37.5-37.5 0-20.707 16.787-37.5 37.5-37.5s37.5 16.793 37.5 37.5c0 20.713-16.787 37.5-37.5 37.5zM662 485.5c-20.713 0-37.5-16.787-37.5-37.5 0-20.707 16.787-37.5 37.5-37.5s37.5 16.793 37.5 37.5c0 20.713-16.787 37.5-37.5 37.5zM362 485.5c-20.707 0-37.5-16.787-37.5-37.5 0-20.707 16.793-37.5 37.5-37.5 20.713 0 37.5 16.793 37.5 37.5 0 20.713-16.787 37.5-37.5 37.5z" />
<glyph unicode="&#xe931;" glyph-name="sad-line" d="M512 832c211.74 0 384-172.26 384-384s-172.26-384-384-384c-211.74 0-384 172.26-384 384s172.26 384 384 384zM512 787c-186.926 0-339-152.074-339-339s152.074-339 339-339c186.926 0 339 152.074 339 339s-152.074 339-339 339zM505.121 420.813c89.8-0.274 170.571-52.953 207.458-133.714 2.315-5.070 3.995-10.301 6.419-15.534 16.129-34.818-24.2-59.886-45.015-16.608-1.61 3.348-2.578 6.704-4.004 9.972-28.465 65.21-93.030 107.878-164.857 107.878-70.353 0-133.739-40.935-163.060-103.893-2.114-4.54-2.981-9.323-5.802-13.957-19.22-31.584-54.395-10.196-45.015 16.608 4.050 11.572 9.441 22.606 15.373 33.096 40.010 70.754 115.389 115.899 198.504 116.153zM628.815 589.474c30.906 0 55.96-25.054 55.96-55.96s-25.054-55.96-55.96-55.96c-30.906 0-55.96 25.054-55.96 55.96s25.054 55.96 55.96 55.96zM385.727 589.474c30.867 0 55.913-25.022 55.942-55.908s-24.97-55.955-55.855-56.013c-30.885-0.058-55.978 24.917-56.066 55.802-0.042 14.874 5.84 29.154 16.346 39.683 9.005 9.025 20.773 14.66 33.318 16.080l6.315 0.355z" />
<glyph unicode="&#xe932;" glyph-name="sad-fill" d="M512 832c-212.077 0-384-171.923-384-384s171.923-384 384-384c212.077 0 384 171.923 384 384 0 101.843-40.457 199.515-112.471 271.529s-169.686 112.471-271.529 112.471zM640.289 584.904c32.623 0 59.069-26.446 59.069-59.069s-26.446-59.069-59.069-59.069c-32.623 0-59.069 26.446-59.069 59.069s26.446 59.069 59.069 59.069v0zM383.677 584.904c32.601 0 59.038-26.412 59.069-59.014s-26.357-59.063-58.958-59.125c-32.601-0.061-59.088 26.301-59.18 58.902-0.044 15.701 6.164 30.773 17.254 41.888s26.148 17.357 41.849 17.348h-0.033zM728.707 265.731c2.444-5.351 4.217-10.873 6.776-16.397 17.025-36.752-25.545-63.213-47.516-17.53-1.7 3.534-2.721 7.076-4.227 10.526-30.047 68.833-98.199 113.872-174.016 113.872-74.262 0-141.169-43.209-172.119-109.665-2.232-4.792-3.147-9.841-6.124-14.733-20.288-33.338-57.417-10.762-47.516 17.53 4.275 12.215 9.966 23.862 16.227 34.934 42.233 74.685 121.8 122.338 209.531 122.606 94.789-0.289 180.047-55.895 218.983-141.143z" />
<glyph unicode="&#xe933;" glyph-name="check-one-line" d="M741.619 746.654h-0.896c-12.331-0.256-23.979-5.845-31.872-15.317l-251.093-301.141-130.645 90.581c-7.381 5.12-15.872 7.637-24.32 7.637-11.691 0-23.296-4.821-31.616-14.037l-46.805-51.627c-14.677-16.213-14.72-40.875-0.085-57.173l209.493-233.173c8.149-9.045 19.669-14.165 31.744-14.165 1.109 0 2.261 0.043 3.371 0.171 13.269 1.024 25.301 8.192 32.469 19.413l304.256 472.021c10.453 16.213 8.704 37.461-4.267 51.755l-28.117 31.061c-8.107 8.917-19.584 13.995-31.616 13.995zM741.619 703.987l28.117-31.061-304.213-472.021-209.536 233.216 46.805 51.627 162.731-112.853 276.096 331.093z" />
<glyph unicode="&#xe934;" glyph-name="check-one-fill" d="M741.632 704l28.117-31.019-304.213-472.064-209.536 233.173 46.763 51.627 162.773-112.811z" />
<glyph unicode="&#xe935;" glyph-name="check-two-line" d="M613.619 746.671h-0.896c-12.331-0.256-23.979-5.888-31.872-15.317l-251.093-301.141-130.645 90.581c-7.381 5.12-15.872 7.595-24.32 7.637-11.691 0-23.296-4.864-31.616-14.037l-46.805-51.627c-14.677-16.213-14.72-40.917-0.085-57.173l209.493-233.216c8.149-9.045 19.669-14.123 31.744-14.123 1.109 0 2.261 0.043 3.371 0.128 13.269 1.024 25.301 8.235 32.469 19.413l70.443 109.312 108.8-121.6c8.107-9.088 19.712-14.208 31.787-14.208 1.109 0 2.219 0.043 3.371 0.128 13.269 1.024 25.259 8.235 32.512 19.413l304.213 472.064c10.453 16.213 8.704 37.419-4.224 51.755l-28.16 31.061c-8.064 8.917-19.584 13.995-31.616 13.995h-0.853c-12.331-0.256-23.979-5.845-31.872-15.317l-251.691-301.824-31.531 20.821 133.077 206.421c10.453 16.256 8.704 37.461-4.267 51.797l-28.117 31.019c-8.107 8.96-19.584 14.037-31.616 14.037zM860.489 697.050l28.117-31.061-304.213-472.021-123.307 137.813 52.224 81.109 71.083-46.933 276.096 331.093zM613.619 704.004l28.117-31.061-304.213-472.021-209.536 233.173 46.805 51.627 162.731-112.853 276.096 331.136z" />
<glyph unicode="&#xe936;" glyph-name="check-two-fill" d="M860.504 697.054l28.113-31.034-304.223-472.052-123.319 137.814 52.224 81.089 71.095-46.919 276.11 331.102zM613.626 704l28.113-31.034-304.223-472.052-209.516 233.178 46.783 51.643 162.733-112.838 276.11 331.102z" />
<glyph unicode="&#xe937;" glyph-name="smille-line" d="M512 832c211.74 0 384-172.26 384-384s-172.26-384-384-384c-211.74 0-384 172.26-384 384s172.26 384 384 384zM512 787c-186.926 0-339-152.074-339-339s152.074-339 339-339c186.926 0 339 152.074 339 339s-152.074 339-339 339zM338.416 397.867c1.61-3.348 2.578-6.704 4.004-9.972 28.465-65.21 93.030-107.878 164.857-107.878 70.353 0 133.739 40.935 163.060 103.893 2.114 4.54 2.981 9.323 5.802 13.957 19.22 31.584 54.395 10.196 45.015-16.608-4.050-11.572-9.441-22.606-15.373-33.096-40.010-70.754-115.389-115.899-198.504-116.153-89.8 0.274-170.571 52.953-207.458 133.714-2.315 5.070-3.995 10.301-6.419 15.534-16.129 34.818 24.2 59.886 45.015 16.608zM628.815 589.474c30.906 0 55.96-25.054 55.96-55.96s-25.054-55.96-55.96-55.96c-30.906 0-55.96 25.054-55.96 55.96s25.054 55.96 55.96 55.96zM385.727 589.474c30.867 0 55.913-25.022 55.942-55.908s-24.97-55.955-55.855-56.013c-30.885-0.058-55.978 24.917-56.066 55.802-0.042 14.874 5.84 29.154 16.346 39.683 9.005 9.025 20.773 14.66 33.318 16.080l6.315 0.355z" />
<glyph unicode="&#xe938;" glyph-name="smille-fill" d="M512 832c-212.077 0-384-171.923-384-384s171.923-384 384-384c212.077 0 384 171.923 384 384 0 101.843-40.457 199.515-112.471 271.529s-169.686 112.471-271.529 112.471zM640.289 584.904c32.623 0 59.069-26.446 59.069-59.069s-26.446-59.069-59.069-59.069c-32.623 0-59.069 26.446-59.069 59.069s26.446 59.069 59.069 59.069v0zM383.677 584.904c32.601 0 59.038-26.412 59.069-59.014s-26.357-59.063-58.958-59.125c-32.601-0.061-59.088 26.301-59.18 58.902-0.044 15.701 6.164 30.773 17.254 41.888s26.148 17.357 41.849 17.348h-0.033zM293.017 348.725c-2.444 5.351-4.217 10.873-6.776 16.397-17.025 36.752 25.545 63.213 47.516 17.53 1.7-3.534 2.721-7.076 4.227-10.526 30.047-68.833 98.199-113.872 174.016-113.872 74.262 0 141.169 43.209 172.119 109.665 2.232 4.792 3.147 9.841 6.124 14.733 20.288 33.338 57.417 10.762 47.516-17.53-4.275-12.215-9.966-23.862-16.227-34.934-42.233-74.685-121.8-122.338-209.531-122.606-94.789 0.289-180.047 55.895-218.983 141.143z" />
<glyph unicode="&#xe939;" glyph-name="messenger-line" d="M511.992 832c211.74 0 383.992-158.205 383.992-352.697 0-106.622-51.615-206.268-141.565-273.37-98.942-73.822-229.083-97.918-350.169-65.151v0l-130.909-73.694c-16-8.928-35.775 2.56-35.775 20.928v0 144.925c-70.751 65.983-109.566 153.053-109.566 246.363 0 194.492 172.252 352.697 383.992 352.697zM511.992 784.001c-185.276 0-335.993-136.669-335.993-304.698 0-82.846 35.999-160.157 101.406-217.692 5.152-4.544 8.128-11.136 8.128-18.016v0-114.526l103.87 58.463c5.664 3.168 12.384 3.936 18.624 2.080 109.31-32.511 228.123-12 317.689 54.783 77.694 57.951 122.269 143.581 122.269 234.907 0 168.029-150.717 304.698-335.993 304.698zM741.075 581.381c24.16 12.32 47.039-18.912 27.999-38.239v0l-191.996-194.652c-8.064-8.128-23.328-11.168-34.303 0.128v0l-83.774 86.078-176.284-88.158c-24.16-12.128-46.879 19.232-27.679 38.431v0l191.996 191.996c9.92 9.92 25.183 8.928 34.111-0.16v0l83.646-85.406z" />
<glyph unicode="&#xe93a;" glyph-name="update-line" d="M582.53 746.271c-172.748 0-313.226-140.626-313.226-313.374v-1.036l-62.023 93.405c-6.069 9.178-18.503 11.694-27.681 5.625s-11.694-18.503-5.625-27.681l90.001-135.445c3.257-4.885 8.438-7.993 14.211-8.734 0.888-0.148 1.628-0.148 2.516-0.148 4.885 0 9.622 1.776 13.322 5.181l125.083 112.649c8.141 7.401 8.882 19.984 1.48 28.273-7.401 8.141-19.984 8.882-28.273 1.48l-83.043-75.050v1.48c0 150.84 122.567 273.406 273.258 273.406s273.406-122.567 273.406-273.406c0-150.84-122.567-273.406-273.258-273.406-72.977 0-141.662 28.421-193.176 80.083-7.845 7.845-20.428 7.845-28.273 0s-7.845-20.428 0-28.273c59.211-59.211 137.813-91.777 221.449-91.777 172.6 0 313.226 140.478 313.226 313.374s-140.626 313.374-313.374 313.374z" />
<glyph unicode="&#xe93b;" glyph-name="update-fill" d="M582.673 77.252c-95.019 0-184.405 37.035-251.605 104.235-24.405 24.533-24.363 64.256 0 88.619 24.491 24.363 64.213 24.363 88.533 0.085 43.563-43.648 101.419-67.669 163.072-67.669 127.147 0 230.613 103.509 230.613 230.784 0 127.189-103.509 230.699-230.784 230.699-84.309 0-158.208-45.525-198.4-113.28 23.211 8.491 50.432 2.688 68.011-16.597 23.168-25.984 21.035-65.579-4.352-88.619l-125.184-112.768c-11.008-10.24-26.069-16.171-41.856-16.171-2.645 0-7.851 0.427-10.539 0.939-15.531 1.963-31.616 11.861-41.643 26.837l-90.112 135.595c-9.259 14.080-12.501 30.805-9.131 47.232 3.328 16.427 12.885 30.507 26.837 39.723 13.867 9.173 30.635 12.459 47.061 9.045 16.427-3.328 30.549-12.885 39.723-26.837l2.133-3.243c47.36 141.611 180.779 243.456 337.451 243.456 196.352 0 356.053-159.701 356.053-356.011 0-196.352-159.616-356.053-355.883-356.053v0z" />
<glyph unicode="&#xe93c;" glyph-name="apresentation-file-line" d="M531.584 788.916c7.008 1.296 14.256-0.576 19.728-5.088 5.52-4.56 8.688-11.328 8.688-18.48v0-71.987l312-0.013c11.923 0 21.825-8.709 23.686-20.109l0.314-3.891v-480c0-13.248-10.752-24-24-24v0l-312 0.013v-72.013c0-5.683-2.028-11.182-5.665-15.489l-3.023-2.991c-4.32-3.6-9.792-5.52-15.312-5.52-1.44 0-2.976 0.144-4.416 0.432v0l-384 72c-11.376 2.112-19.584 12.048-19.584 23.568v0 528c0 11.568 8.208 21.456 19.584 23.568v0zM512 736.404l-336-62.976v-488.16l336-62.976v614.112zM848 645.348l-288 0.013v-336l216-0.013c11.923 0 21.825-8.709 23.686-20.109l0.314-3.891c0-13.248-10.752-24-24-24v0l-216 0.013v-48l288-0.013v432zM680 597.348c66.192 0 120-53.856 120-120s-53.808-120-120-120c-66.192 0-120 53.856-120 120s53.808 120 120 120zM656.014 545.24c-27.942-9.903-48.014-36.601-48.014-67.891 0-39.696 32.304-72 72-72 31.274 0 57.96 20.051 67.876 47.971l-67.876 0.029c-13.248 0-24 10.752-24 24v0zM747.891 501.334c-7.238 20.422-23.446 36.639-43.862 43.89l-0.029-43.876z" />
<glyph unicode="&#xe93d;" glyph-name="apresentation-file-fill" d="M531.584 787.385c6.912 1.44 14.256-0.528 19.728-5.088 5.52-4.56 8.688-11.328 8.688-18.48v0-72h312c13.248 0 24-10.752 24-24v0-480c0-13.248-10.752-24-24-24v0h-312v-72c0-7.104-3.168-13.92-8.688-18.48-4.32-3.6-9.744-5.52-15.312-5.52-1.488 0-2.976 0.144-4.416 0.432v0l-384 72c-11.376 2.112-19.584 12.048-19.584 23.568v0 528c0 11.568 8.208 21.456 19.584 23.568v0zM848 643.817h-288v-336h216c13.248 0 24-10.752 24-24s-10.752-24-24-24v0h-216v-48h288v432zM656 593.417v-141.6h141.6c-11.136-54.768-59.568-96-117.6-96-66.288 0-120 53.712-120 120 0 58.032 41.232 106.464 96 117.6v0zM704 593.417c46.992-9.552 84.048-46.608 93.6-93.6v0h-93.6z" />
<glyph unicode="&#xe93e;" glyph-name="word-file-line" d="M531.584 788.916c7.008 1.296 14.256-0.576 19.728-5.088 5.52-4.56 8.688-11.328 8.688-18.48v0-71.987l312-0.013c11.923 0 21.825-8.709 23.686-20.109l0.314-3.891v-480c0-13.248-10.752-24-24-24v0l-312 0.013v-72.013c0-5.683-2.028-11.182-5.665-15.489l-3.023-2.991c-4.32-3.6-9.792-5.52-15.312-5.52-1.44 0-2.976 0.144-4.416 0.432v0l-384 72c-11.376 2.112-19.584 12.048-19.584 23.568v0 528c0 11.568 8.208 21.456 19.584 23.568v0zM512 736.404l-336-62.976v-488.16l336-62.976v614.112zM848 645.348l-288 0.013v-48l216-0.013c11.923 0 21.825-8.709 23.686-20.109l0.314-3.891c0-13.248-10.752-24-24-24v0l-216 0.013v-48l216-0.013c11.923 0 21.825-8.709 23.686-20.109l0.314-3.891c0-13.248-10.752-24-24-24v0l-216 0.013v-48l216-0.013c11.923 0 21.825-8.709 23.686-20.109l0.314-3.891c0-13.248-10.752-24-24-24v0l-216 0.013v-48l216-0.013c11.923 0 21.825-8.709 23.686-20.109l0.314-3.891c0-13.248-10.752-24-24-24v0l-216 0.013v-48l288-0.013v432zM438.846 549.282l3.794-0.077c13.2-1.488 22.656-13.344 21.216-26.496v0l-24-216c-1.248-10.992-9.888-19.776-20.88-21.12-1.008-0.192-1.968-0.24-2.976-0.24-9.888 0-18.912 6.144-22.464 15.552v0l-49.536 132.096-49.536-132.096c-3.84-10.272-13.92-16.512-25.056-15.408-10.896 1.152-19.632 9.6-21.168 20.496v0l-24 168c-1.872 13.104 7.248 25.248 20.352 27.12 13.008 2.112 25.296-7.2 27.168-20.352v0l10.704-75.072 39.024 104.112c7.008 18.72 37.92 18.72 44.976 0v0l36.768-98.016 12.912 116.256c1.44 13.152 13.776 22.464 26.496 21.168z" />
<glyph unicode="&#xe93f;" glyph-name="word-file-fill" d="M872 691.817h-312v72c0 7.152-3.168 13.92-8.688 18.48-5.472 4.56-12.816 6.528-19.728 5.088l-384-72c-11.376-2.112-19.584-12-19.584-23.568v-528c0-11.52 8.208-21.456 19.584-23.568l384-72c1.44-0.288 2.928-0.432 4.416-0.432 5.568 0 10.992 1.92 15.312 5.52 5.52 4.56 8.688 11.376 8.688 18.48v72h312c13.248 0 24 10.752 24 24v480c0 13.248-10.752 24-24 24zM463.856 521.177l-24-216.048c-1.248-10.992-9.888-19.776-20.88-21.12-1.008-0.144-1.968-0.192-2.976-0.192-9.888 0-18.912 6.144-22.464 15.552l-49.536 132.096-49.536-132.096c-3.84-10.272-13.92-16.56-25.056-15.408-10.896 1.152-19.632 9.6-21.168 20.496l-24 168c-1.872 13.104 7.248 25.248 20.352 27.12 13.152 1.92 25.296-7.248 27.168-20.352l10.704-75.072 39.024 104.112c7.008 18.72 37.92 18.72 44.976 0l36.768-98.016 12.912 116.256c1.488 13.152 13.68 22.56 26.496 21.168 13.2-1.488 22.656-13.344 21.216-26.496zM848 211.817h-288v48h216c13.248 0 24 10.752 24 24s-10.752 24-24 24h-216v48h216c13.248 0 24 10.752 24 24s-10.752 24-24 24h-216v48h216c13.248 0 24 10.752 24 24s-10.752 24-24 24h-216v48h216c13.248 0 24 10.752 24 24s-10.752 24-24 24h-216v48h288v-432z" />
<glyph unicode="&#xe940;" glyph-name="excel-file-line" d="M531.584 788.916c7.008 1.296 14.256-0.576 19.728-5.088 5.52-4.56 8.688-11.328 8.688-18.48v0-71.987l312-0.013c11.923 0 21.825-8.709 23.686-20.109l0.314-3.891v-480c0-13.248-10.752-24-24-24v0l-312 0.013v-72.013c0-5.683-2.028-11.182-5.665-15.489l-3.023-2.991c-4.32-3.6-9.792-5.52-15.312-5.52-1.44 0-2.976 0.144-4.416 0.432v0l-384 72c-11.376 2.112-19.584 12.048-19.584 23.568v0 528c0 11.568 8.208 21.456 19.584 23.568v0zM512 736.404l-336-62.976v-488.16l336-62.976v614.112zM848 645.348l-288 0.013v-48l72-0.013c11.923 0 21.825-8.709 23.686-20.109l0.314-3.891c0-13.248-10.752-24-24-24v0l-72 0.013v-48l72-0.013c11.923 0 21.825-8.709 23.686-20.109l0.314-3.891c0-13.248-10.752-24-24-24v0l-72 0.013v-48l72-0.013c11.923 0 21.825-8.709 23.686-20.109l0.314-3.891c0-13.248-10.752-24-24-24v0l-72 0.013v-48l72-0.013c11.923 0 21.825-8.709 23.686-20.109l0.314-3.891c0-13.248-10.752-24-24-24v0l-72 0.013v-48l288-0.013v432zM776 309.348c13.248 0 24-10.752 24-24s-10.752-24-24-24v0h-48c-13.248 0-24 10.752-24 24s10.752 24 24 24v0zM421.040 564.084c8.16 10.416 23.232 12.384 33.696 4.176 10.464-8.112 12.336-23.184 4.176-33.696v0l-76.747-98.611 75.931-86.813c7.765-8.875 7.832-21.807 0.739-30.707l-2.995-3.133c-4.608-3.984-10.224-5.952-15.84-5.952-6.672 0-13.296 2.784-18.048 8.208v0l-69.781 79.784-61.259-78.776c-3.763-4.838-9.062-7.834-14.669-8.838l-4.243-0.378c-5.136 0-10.32 1.632-14.736 5.040-10.464 8.112-12.336 23.232-4.224 33.696v0l66.917 86.077-66.005 75.395c-7.765 8.832-7.832 21.798-0.739 30.706l2.995 3.134c9.936 8.736 25.056 7.776 33.888-2.256v0l59.856-68.408zM776 405.348c13.248 0 24-10.752 24-24s-10.752-24-24-24v0h-48c-13.248 0-24 10.752-24 24s10.752 24 24 24v0zM776 501.348c13.248 0 24-10.752 24-24s-10.752-24-24-24v0h-48c-13.248 0-24 10.752-24 24s10.752 24 24 24v0zM776 597.348c13.248 0 24-10.752 24-24s-10.752-24-24-24v0h-48c-13.248 0-24 10.752-24 24s10.752 24 24 24v0z" />
<glyph unicode="&#xe941;" glyph-name="excel-file-fill" d="M531.584 787.385c6.912 1.44 14.256-0.528 19.728-5.088 5.52-4.56 8.688-11.328 8.688-18.48v0-72h312c13.248 0 24-10.752 24-24v0-480c0-13.248-10.752-24-24-24v0h-312v-72c0-7.104-3.168-13.92-8.688-18.48-4.32-3.6-9.744-5.52-15.312-5.52-1.488 0-2.976 0.144-4.416 0.432v0l-384 72c-11.376 2.112-19.584 12.048-19.584 23.568v0 528c0 11.568 8.208 21.456 19.584 23.568v0zM848 643.817h-288v-48h72c13.248 0 24-10.752 24-24s-10.752-24-24-24v0h-72v-48h72c13.248 0 24-10.752 24-24s-10.752-24-24-24v0h-72v-48h72c13.248 0 24-10.752 24-24s-10.752-24-24-24v0h-72v-48h72c13.248 0 24-10.752 24-24s-10.752-24-24-24v0h-72v-48h288v432zM776 307.817c13.248 0 24-10.752 24-24s-10.752-24-24-24v0h-48c-13.248 0-24 10.752-24 24s10.752 24 24 24v0zM454.784 566.729c-10.464 8.16-25.536 6.24-33.696-4.176v0l-71.088-91.392-59.904 68.448c-8.832 10.032-23.952 10.992-33.888 2.256-9.984-8.736-10.992-23.904-2.256-33.84v0l66-75.456-66.912-86.016c-8.112-10.464-6.24-25.536 4.224-33.696 4.416-3.408 9.6-5.040 14.736-5.040 7.104 0 14.208 3.168 18.96 9.216v0l61.2 78.72 69.792-79.728c4.752-5.424 11.376-8.208 18.048-8.208 5.616 0 11.232 1.968 15.792 5.952 9.984 8.736 10.992 23.904 2.256 33.84v0l-75.888 86.736 76.8 98.688c8.16 10.512 6.288 25.584-4.176 33.696zM776 403.817c13.248 0 24-10.752 24-24s-10.752-24-24-24v0h-48c-13.248 0-24 10.752-24 24s10.752 24 24 24v0zM776 499.817c13.248 0 24-10.752 24-24s-10.752-24-24-24v0h-48c-13.248 0-24 10.752-24 24s10.752 24 24 24v0zM776 595.817c13.248 0 24-10.752 24-24s-10.752-24-24-24v0h-48c-13.248 0-24 10.752-24 24s10.752 24 24 24v0z" />
<glyph unicode="&#xe942;" glyph-name="text-center-line" d="M773.334 789.333c44.112 0 80-35.888 80-80v0-522.667c0-44.112-35.888-80-80-80v0h-522.667c-44.112 0-80 35.888-80 80v0 522.667c0 44.112 35.888 80 80 80v0zM773.334 736h-522.667c-14.704 0-26.667-11.963-26.667-26.667v0-522.667c0-14.704 11.963-26.667 26.667-26.667v0h522.667c14.703 0 26.667 11.963 26.667 26.667v0 522.667c0 14.704-11.964 26.667-26.667 26.667v0zM714.099 381.381c13.255 0 24-10.747 24-24 0-13.255-10.745-24-24-24v0h-421.333c-13.255 0-24 10.745-24 24 0 13.253 10.745 24 24 24v0zM714.099 489.381c13.255 0 24-10.745 24-24s-10.745-24-24-24v0h-421.333c-13.255 0-24 10.745-24 24s10.745 24 24 24v0zM714.099 598.714c13.255 0 24-10.745 24-24s-10.745-24-24-24v0h-421.333c-13.255 0-24 10.745-24 24s10.745 24 24 24v0z" />
<glyph unicode="&#xe943;" glyph-name="text-right-line" d="M773.333 789.333c44.112 0 80-35.888 80-80v0-522.667c0-44.112-35.888-80-80-80v0h-522.667c-44.112 0-80 35.888-80 80v0 522.667c0 44.112 35.888 80 80 80v0zM773.333 736h-522.667c-14.703 0-26.667-11.963-26.667-26.667v0-522.667c0-14.704 11.964-26.667 26.667-26.667v0h522.667c14.704 0 26.667 11.963 26.667 26.667v0 522.667c0 14.704-11.963 26.667-26.667 26.667v0zM731.234 382.715c13.255 0 24-10.747 24-24 0-13.255-10.745-24-24-24v0h-256.4c-13.255 0-24 10.745-24 24 0 13.253 10.745 24 24 24v0zM731.234 489.381c13.255 0 24-10.745 24-24s-10.745-24-24-24v0h-421.333c-13.255 0-24 10.745-24 24s10.745 24 24 24v0zM731.234 598.714c13.255 0 24-10.745 24-24s-10.745-24-24-24v0h-309.333c-13.255 0-24 10.745-24 24s10.745 24 24 24v0z" />
<glyph unicode="&#xe944;" glyph-name="text-left-line" d="M773.333 789.334c44.113 0 80-35.889 80-80v0-522.667c0-44.112-35.888-80-80-80v0h-522.667c-44.111 0-80 35.888-80 80v0 522.667c0 44.111 35.889 80 80 80v0zM773.333 736.001h-522.667c-14.703 0-26.667-11.964-26.667-26.667v0-522.667c0-14.704 11.964-26.667 26.667-26.667v0h522.667c14.704 0 26.667 11.963 26.667 26.667v0 522.667c0 14.703-11.963 26.667-26.667 26.667v0zM549.166 382.714c13.253 0 24-10.745 24-24s-10.747-24-24-24v0h-256.4c-13.255 0-24 10.745-24 24s10.745 24 24 24v0zM714.1 489.381c13.255 0 24-10.745 24-24s-10.745-24-24-24v0h-421.333c-13.255 0-24 10.745-24 24s10.745 24 24 24v0zM602.1 598.714c13.255 0 24-10.745 24-24s-10.745-24-24-24v0h-309.333c-13.255 0-24 10.745-24 24s10.745 24 24 24v0z" />
</font>
</defs>
</svg>
